<?xml version="1.0" standalone="no"?>
<!DOCTYPE svg PUBLIC "-//W3C//DTD SVG 1.1//EN" "http://www.w3.org/Graphics/SVG/1.1/DTD/svg11.dtd" >
<svg xmlns="http://www.w3.org/2000/svg">
<metadata></metadata>
<defs>
<font id="je_naime_pas_le_lundi_boldRg" horiz-adv-x="276" >
<font-face units-per-em="2048" ascent="1536" descent="-512" />
<missing-glyph horiz-adv-x="251" />
<glyph horiz-adv-x="2048" />
<glyph horiz-adv-x="2048" />
<glyph unicode="&#xd;" horiz-adv-x="2048" />
<glyph unicode=" "  horiz-adv-x="251" />
<glyph unicode="&#x09;" horiz-adv-x="251" />
<glyph unicode="&#xa0;" horiz-adv-x="251" />
<glyph unicode="!" horiz-adv-x="112" d="M-25 268q0 23 15.5 38.5t38.5 15.5t38 -15.5t15 -38.5t-15.5 -37t-37.5 -14q-23 0 -38.5 14.5t-15.5 36.5zM-2 371v899q0 12 8 21t23 9q14 0 23 -9t9 -21v-899q0 -12 -9 -21.5t-23 -9.5t-22.5 9t-8.5 22z" />
<glyph unicode="$" horiz-adv-x="446" d="M-4 414q0 35 9 78t28 86q4 10 16 16t23 2q14 -8 20 -20.5t2 -22.5q-35 -82 -35 -137q0 -78 54 -113q43 -27 92 -14q-4 111 -10.5 228.5t-14.5 234.5q-20 23 -40.5 46t-41.5 46v-2q-43 43 -65.5 108.5t-22.5 134.5q0 74 25 129q14 35 38.5 58.5t53.5 38.5q-2 12 -3 22 t-1 19q0 14 -2 16q0 14 6 25.5t23 13.5q14 2 23 -8t13 -21v-10q0 -6 1 -15.5t3 -23.5h23q84 0 133 -55q29 -39 40 -90t11 -101q0 -37 -4 -70.5t-8 -49.5q0 -4 -1 -6.5t-1 -4.5q-2 -14 -14.5 -21t-24.5 -3t-20.5 14t-6.5 27q2 8 8.5 45t6.5 80q0 39 -8.5 75.5t-30.5 63.5 q-27 33 -80 33q-4 0 -7 -1t-7 -1q4 -29 7 -64t7 -72q8 -78 15.5 -167t17.5 -187q63 -82 105 -170t42 -166q0 -90 -61 -153q-16 -16 -30.5 -25.5t-31.5 -17.5v-78q0 -10 -8 -20.5t-22 -10.5t-22.5 10.5t-10.5 20.5q-2 14 -2 28.5t-2 30.5q-4 0 -12.5 -1t-12.5 -1 q-53 0 -104 31q-78 51 -78 162zM76 1090q0 -55 18 -110.5t53 -90.5q4 -8 21 -25q-10 111 -18.5 206t-14.5 165v6q-10 -10 -21.5 -25.5t-19.5 -29.5q-8 -20 -13 -46t-5 -50zM168 864q2 -8 2 -16t2 -17l18 7q-6 8 -12 14t-10 12zM252 303l18 -6q0 4 -1 9t-1 11q-4 -4 -7 -6 t-7 -6q-2 -2 -1 0t-1 0v-2zM254 647q4 -63 6 -121.5t6 -117.5q2 -23 2 -45.5v-45.5q6 4 15 13v2q23 20 33 48t10 58q0 45 -20.5 100.5t-51.5 108.5z" />
<glyph unicode="'" horiz-adv-x="163" d="M2 954q-14 29 12 45q8 4 42 35t63 94q6 10 19.5 16.5t25.5 2.5q14 -4 18 -18.5t0 -26.5q-16 -43 -35.5 -70.5t-37 -45t-32 -27t-20.5 -13.5q-12 -6 -17 -7t-9 -1q-8 0 -16.5 3t-12.5 13z" />
<glyph unicode="(" horiz-adv-x="241" d="M2 195v751v12q0 13 3 31.5t11.5 40t24.5 39.5q49 51 145 51q10 0 20.5 -8t10.5 -22q0 -12 -10.5 -21.5t-20.5 -9.5q-68 0 -94 -33q-10 -12 -15 -26.5t-7 -24.5q-2 -12 -2 -25v-755q0 -23 8 -42.5t18 -29.5q10 -6 25.5 -8t27.5 -2q14 0 31 2q33 2 37 -23q4 -14 -2 -25.5 t-23 -15.5q-16 -4 -49 -4q-20 0 -42.5 4t-43.5 19q-53 41 -53 125z" />
<glyph unicode=")" horiz-adv-x="256" d="M-14 1094q0 31 32 30q92 0 146 -49v-2q16 -18 24.5 -38.5t11.5 -39t2 -32t-1 -17.5v-747q0 -41 -11.5 -72t-39.5 -53q-23 -16 -45.5 -19.5t-45.5 -3.5h-25t-18 2h-10q-25 10 -18 43q6 27 39 23q16 -4 30 -4q12 0 26.5 2t25.5 12q29 16 28 70v753q0 6 -2 31t-24 47 q-25 33 -93 33q-33 0 -32 31z" />
<glyph unicode="." horiz-adv-x="120" d="M-25 268q0 23 15.5 38.5t38.5 15.5t38 -15.5t15 -38.5t-15.5 -37t-37.5 -14q-23 0 -38.5 14.5t-15.5 36.5z" />
<glyph unicode="0" horiz-adv-x="432" d="M-8 690v131q0 55 3 115.5t12 117t26.5 103.5t46.5 78q43 43 96 43q61 0 105 -47v2q31 -31 48 -78t26.5 -102.5t12.5 -113.5t3 -110v-79q-2 -16 -2 -26.5v-21.5v-18q0 -41 -1 -99.5t-9.5 -120t-27 -116.5t-50.5 -90v2q-41 -41 -99 -41q-63 0 -101 53.5t-57.5 129 t-25.5 155.5t-6 133zM53 741q2 -12 2 -26.5v-24.5q0 -72 7.5 -144.5t22.5 -131t38.5 -96t58.5 -37.5q29 0 54 24q27 27 42 77t21 105.5t7 108.5t1 88l-2 18v19q0 6 1 13t1 16v81q0 45 -2 97.5t-10 101.5t-21.5 91t-37.5 67v-2q-27 27 -60 26q-27 0 -49 -22q-25 -25 -39 -69 t-22.5 -96t-10.5 -108.5t-2 -105.5v-70z" />
<glyph unicode="1" horiz-adv-x="305" d="M-2 602q-16 27 10 47l26 25q27 24 59 87.5t58.5 170t26.5 272.5q0 33 33 33q10 0 19.5 -8t9.5 -25v-958q0 -14 -9.5 -23.5t-19.5 -9.5q-33 0 -33 33v549q-23 -57 -46 -95t-43.5 -62t-35 -35t-16.5 -11l2 2q-10 -8 -22.5 -6t-18.5 14z" />
<glyph unicode="2" horiz-adv-x="446" d="M-6 911q0 176 46 258t99 82q10 0 24.5 -2t29.5 -14q12 -12 21 -35.5t16.5 -72t11.5 -126t4 -196.5q0 -106 -11.5 -188t-29 -144.5t-39 -106.5t-39.5 -73q53 2 113.5 -2t103.5 -8q12 -2 22.5 -3t16.5 -1h2q27 -8 27 -35q-4 -12 -14.5 -19.5t-20.5 -7.5q-49 4 -112.5 8 t-112.5 4q-35 0 -58.5 -2t-32.5 -6h2q-4 -4 -8 -4h-8q-18 0 -27 12q-8 10 -5 22.5t14 20.5h-2l23 22q22 23 49.5 78.5t52 149.5t28.5 236q-29 -61 -74 -62q-53 0 -83 64q-29 57 -29 151zM57 911q0 -47 7.5 -77.5t15.5 -47.5h-2q14 -27 28 -26q10 0 19.5 21.5t9.5 70.5 q0 14 9.5 22.5t21.5 8.5q4 0 16 -4q-6 281 -32 311v-2h-17q-8 0 -20.5 -13.5t-24.5 -46t-21.5 -85t-9.5 -132.5z" />
<glyph unicode="3" horiz-adv-x="417" d="M-8 975q0 61 11 131t50 113q23 25 48.5 36t54.5 11q57 0 87.5 -36t45 -85t16.5 -100t2 -82q0 -59 -31.5 -123t-78.5 -103q29 -12 58.5 -32.5t53 -53.5t38.5 -80t15 -110q0 -68 -12 -112t-29.5 -71.5t-38 -41t-36.5 -17.5q-6 -4 -16.5 -5t-18.5 -1q-41 0 -82 24.5 t-74 69.5q-8 10 -5 23.5t13 21.5q12 4 25.5 3t20.5 -9q27 -41 60.5 -59.5t61.5 -10.5h-2q35 12 53.5 60.5t18.5 124.5q0 86 -30.5 134t-67.5 69.5t-70 25.5t-37 4q-33 0 -33 33t33 33q27 0 53.5 19.5t47 49t33 65.5t12.5 69q0 39 -2 80.5t-11.5 77.5t-26 58.5t-46.5 22.5 q-25 0 -54 -24q-29 -33 -39 -91.5t-10 -111.5v-37.5t2 -32.5q2 -16 4 -28q0 -12 -7 -21.5t-17 -13.5q-14 -4 -25.5 4t-11.5 24q0 4 -3 34t-3 71z" />
<glyph unicode="4" horiz-adv-x="348" d="M0 796v50v356q0 33 29 33q33 0 32 -33v-358v-33t6.5 -75t21.5 -92t44 -85q16 -16 42 -29.5t48 -17.5v291q0 14 10.5 23.5t20.5 9.5q33 0 33 -33v-559q0 -33 -33 -33q-10 0 -20.5 9t-10.5 24v205q-84 10 -137 69q-35 39 -53.5 91.5t-25.5 100.5t-7 86z" />
<glyph unicode="5" horiz-adv-x="425" d="M-2 375q-18 25 8 45q10 6 22.5 5t20.5 -11q111 -150 174 -129q27 10 44.5 43.5t28.5 78t16 94.5t5 91q0 53 -1 106.5t-9 96.5t-23.5 69.5t-45.5 26.5q-27 0 -50.5 -21.5t-42 -51.5t-33 -61.5t-20.5 -51.5v2q-8 -29 -35 -23q-25 6 -24 31v508q0 16 10 26q6 4 15.5 6 t17.5 -4l-2 2q14 -4 30 -8q14 -4 34 -6t44 -2q25 0 53.5 3t63.5 13h-2q31 10 41 -18q10 -33 -23 -43q-39 -10 -71.5 -14t-63.5 -4q-53 0 -86 6v-326q27 37 62 68.5t82 31.5q53 0 82.5 -32.5t43 -85t15.5 -117t2 -127.5q0 -12 -3 -63.5t-16.5 -113t-41 -116.5t-74.5 -74 q-16 -6 -35 -6q-94 0 -213 156z" />
<glyph unicode="6" horiz-adv-x="319" d="M-10 768v27q0 143 23.5 229t52 133t53 63.5t26.5 16.5q33 10 43 -18q4 -14 -2 -25.5t-18 -15.5l-18 -14q-19 -13 -39.5 -53t-39 -110.5t-18.5 -187.5q27 4 63 -7t81 -58q16 -18 28.5 -52t21.5 -76t14 -90.5t5 -93.5q0 -51 -6 -94t-18 -72q-16 -33 -36 -44t-34 -11 q-55 0 -90 50t-54.5 129t-27.5 177.5t-10 196.5zM53 752q2 -131 12.5 -221.5t27 -146.5t37 -80.5t42.5 -24.5q4 0 7 6l5 10h-2q10 25 15.5 61.5t5.5 81.5q0 41 -4 83t-11.5 79t-17.5 64.5t-23 42.5q-33 37 -57 43t-37 2z" />
<glyph unicode="7" horiz-adv-x="489" d="M-6 1167q0 12 12 20.5t25 8.5q14 -2 34.5 -2h40.5q53 0 110.5 6t86.5 25q6 4 15.5 4t17.5 -4q16 -8 16 -27v-16q0 -23 -2 -76t-3 -125t-3 -156t-2 -168h55q31 0 31 -30q0 -33 -31 -33h-55q0 -119 2 -214t8 -130q0 -10 -7 -22.5t-23 -16.5q-10 0 -19.5 9t-13.5 18 q-8 37 -10.5 135t-2.5 221h-118q-33 0 -33 33q0 31 33 30h118q0 10 1.5 21.5t1.5 26.5q4 143 4 265t4 181q-39 -10 -86 -14t-88 -4q-29 0 -51.5 1t-38.5 1q-29 4 -29 32z" />
<glyph unicode="8" horiz-adv-x="284" d="M6 414q0 37 5 79t18 87q8 29 18 61.5t23 65.5q-12 33 -22.5 72.5t-19 79.5t-13.5 79t-3 72v28q2 47 5 86t11.5 68t24 44t43.5 15q27 0 47.5 -23.5t33.5 -61.5t20.5 -87t7.5 -98q0 -63 -19.5 -130t-40.5 -126v2q-2 -6 -4 -10t-4 -10q12 -39 27 -72q8 -19 14 -33 q23 -74 40.5 -143.5t17.5 -122.5q0 -57 -23 -86q-23 -33 -68 -33q-29 0 -55.5 12.5t-44.5 34.5q-23 29 -31 66t-8 84zM68 416q0 -76 28 -111q18 -27 49 -26q10 0 19 8v-2q12 18 9 56t-12 82t-22.5 85t-21.5 65v5q0 -2 -2 4t-4 10q0 6 -5 14q-4 -16 -8 -23.5t-8 -19.5 q-23 -84 -22 -147zM76 1010q-4 -41 5 -95.5t25 -105.5q14 47 23.5 90t9.5 82q0 104 -16.5 154.5t-26.5 50.5q-6 0 -9 -14.5t-5 -36t-3 -47t-3 -50.5v-28z" />
<glyph unicode="9" d="M-5 292.5q-1 14.5 7 26.5q12 16 41 3q8 -6 22.5 -14.5t31 -14.5t32.5 -9t29 1q8 8 12 24.5t4 32.5v365q-10 -2 -16 -2h-17q-47 0 -75 22q-47 35 -58.5 101.5t-11.5 136.5q0 41 5 93t18.5 97t36 76t59.5 31q33 0 59 -17q0 10 8.5 20.5t24.5 10.5q10 0 19.5 -10.5 t9.5 -20.5v-903q0 -84 -52 -111q-23 -12 -45 -12q-23 0 -45 7t-40.5 15.5t-32 16.5t-15.5 12q-10 8 -11 22.5zM57 965q0 -27 1 -55.5t6.5 -54.5t13.5 -46.5t24 -30.5q10 -8 30 -10t42 2v391q-8 10 -23.5 23.5t-35.5 13.5t-39 -66.5t-19 -166.5z" />
<glyph unicode=":" horiz-adv-x="106" d="M-25 424q0 23 15.5 37t38.5 14t38 -14.5t15 -36.5q0 -23 -15.5 -38t-37.5 -15q-23 0 -38.5 15t-15.5 38zM-25 670q0 23 15.5 38t38.5 15t38 -15.5t15 -37.5q0 -23 -15.5 -37.5t-37.5 -14.5q-23 0 -38.5 14.5t-15.5 37.5z" />
<glyph unicode="?" horiz-adv-x="333" d="M-2 905v17q0 41 2 102t14 119q12 76 47 116.5t84 40.5q8 0 21.5 -5t23.5 -15q23 -25 37.5 -80t22.5 -134t11 -177t3 -207q0 -45 -1 -91t-1 -95v-125q0 -12 -9 -21.5t-24 -9.5q-12 0 -21 9t-9 22v125q0 41 1 88t1 98v102q-2 -43 -11.5 -84t-29.5 -63q-23 -27 -56.5 -26 t-56.5 24q-35 37 -43 110.5t-6 159.5zM61 853q0 -32 3.5 -65.5t10.5 -63.5t19 -44v2q6 -6 12 -6h3l4 4v-2q10 16 16 52t6 77q0 29 -2 58.5t-6 54.5q0 14 9 24t22 14q33 0 37 -28v-2q0 -4 1 -16.5t3 -30.5q-2 63 -6.5 121.5t-10.5 105.5t-16 81t-23 46q-2 0 0 2 q-23 -2 -40 -30.5t-27 -78.5q-10 -51 -11.5 -109t-1.5 -93l-2 -23v-50zM180 268q0 23 14 38.5t37 15.5t38.5 -15.5t15.5 -38.5t-15.5 -37t-38.5 -14t-37 14.5t-14 36.5z" />
<glyph unicode="@" horiz-adv-x="751" d="M-2 553q0 266 50 441t149 257q57 45 107 51.5t69 4.5q45 -2 91 -20.5t81 -55.5v2q55 -55 84.5 -141t42 -178.5t14.5 -178.5t2 -141v-33q0 -59 -1 -118.5t-9 -110.5q-27 -137 -117 -137q-29 0 -56.5 3t-53.5 25q-8 8 -21 25q-33 -57 -86 -58q-35 0 -63 29q-29 29 -42.5 86 t-13.5 135q2 16 2 38v50q0 88 3 168t14.5 139.5t35 94.5t64.5 35q45 0 78 -33q18 -20 27.5 -50t14.5 -60.5t5 -55.5v-37l-6 -350q2 -39 8 -66.5t23 -38.5q12 -10 29.5 -12t37.5 -2q4 0 10.5 1t13.5 9.5t14 25.5t11 48q10 47 11.5 103.5t1.5 113.5v94q0 57 -4.5 131 t-16.5 149t-37.5 141.5t-68.5 109.5h2q-29 27 -62 41t-74 14q-10 0 -44.5 -3t-81.5 -42q-29 -25 -60 -70t-55.5 -120.5t-41 -186t-16.5 -266.5q0 -33 3.5 -86t11.5 -113.5t24.5 -122t44 -111.5t68.5 -82t98 -32q33 0 33 -33t-33 -32q-74 0 -126 34.5t-86.5 91t-55 125 t-31 137t-13.5 128t-3 96.5zM295 438q-2 -43 2 -73.5t9 -51t11.5 -32t10.5 -17.5q4 -2 8 -5t8 -3q16 0 33.5 28.5t19.5 92.5v29l6 327v33.5t-3 44.5t-11 44.5t-20 31.5q-10 10 -23 10q-18 0 -29.5 -42t-15.5 -101.5t-5 -122t-1 -103.5v-90z" />
<glyph unicode="A" horiz-adv-x="589" d="M4 786q-4 14 -4 29q0 18 6 35q33 78 115 88q16 2 54 1t75 -3h10v35q0 31 3 89t15.5 114.5t36 99.5t64.5 43q27 0 47 -20.5t34.5 -66.5t24 -122t13.5 -188q10 -2 17 -1t13 1t10.5 -1t6.5 -1q16 0 24.5 -11.5t8.5 -25.5q-2 -10 -12.5 -19.5t-24.5 -7.5q-12 0 -21.5 -1 t-19.5 1q4 -125 5 -289t1 -381q0 -16 -10.5 -25t-20.5 -9q-33 0 -33 34q0 178 -1 351.5t-7 326.5q-29 4 -55.5 4t-54.5 2v-602q0 -33 -31 -33q-33 0 -33 33v606q-45 4 -80 4.5t-51 -4.5q-20 -4 -36.5 -15t-20.5 -30q-10 -27 12 -49q20 -20 -2 -49l-9 -6t-12 -2q-16 0 -24 8 q-25 25 -33 57zM313 934l11 -8v8h-11zM324 934q16 -2 31.5 -2t31.5 -2q14 -2 23.5 -3t21.5 -1q-8 143 -20.5 233t-32.5 90q-12 0 -21.5 -24.5t-17.5 -64.5t-12 -90t-4 -99v-37z" />
<glyph unicode="B" horiz-adv-x="299" d="M-10 705q0 8 1 15t1 15l-2 51v23v107.5t3 114.5t8 106.5t15 83.5q8 31 22.5 48t30 24t28 7h18.5q45 -6 84 -64.5t39 -150.5q0 -47 -17.5 -100t-44.5 -102q18 -20 32.5 -59.5t24 -86.5t14.5 -100t5 -102v-36t-2 -36q-2 -39 -9.5 -79t-21.5 -74t-35.5 -56.5t-52.5 -28.5 l2 2q-6 -4 -16 -4q-25 0 -51 19q-27 23 -42.5 69.5t-23.5 108t-9 134.5t-1 151zM39 780l18 -6v14v17q-4 -8 -9 -13.5t-9 -11.5zM55 897q0 -27 1 -49.5t1 -42.5q18 29 39 64.5t38.5 72.5t27.5 74t10 69q0 63 -24.5 103.5t-47.5 46.5q-4 -4 -10 -13.5t-10 -17.5v2 q-8 -25 -12.5 -60.5t-7.5 -77.5t-4 -86t-1 -85zM57 631q0 -45 2 -98.5t8.5 -102.5t18.5 -89t35 -58q-4 2 0 6q23 4 40 51t25 125v2q2 14 2 26.5v28.5q0 92 -14 174t-33 121q-25 -41 -49 -75.5t-35 -49.5v-61z" />
<glyph unicode="C" horiz-adv-x="290" d="M-8 893q0 90 6 183t22 147q16 53 47 71q25 14 48 14q5 0 10 -1q45 -9 82 -65q35 -54 35 -149v-10v-213q0 -35 -31 -34q-35 0 -35 34v215v12q0 67 -20 102q-22 38 -41 42q-12 2 -20.5 -11t-12.5 -24v2q-8 -31 -13.5 -80t-7.5 -104t-2 -111.5v-101.5v-25l2 -59 q0 -78 1 -161t12 -150q6 -43 19 -87t38 -44q23 0 39 56t23 148q0 10 9 21.5t25 9.5q29 -4 29 -31q-2 -39 -7 -86t-19.5 -88t-38 -68.5t-60.5 -27.5t-59.5 22.5t-37 53.5t-20.5 61.5t-8 49.5q-10 72 -11 156.5t-1 164.5v57q0 23 -1 50.5t-1 58.5z" />
<glyph unicode="D" horiz-adv-x="538" d="M-4 1133q143 115 229 153q50 22 91 21q29 0 53 -11v-2q82 -41 104.5 -199.5t22.5 -449.5q0 -31 -4.5 -91t-20.5 -123.5t-47 -120t-84 -77.5q-20 -8 -43 -8q-55 0 -116.5 42t-129.5 122q-10 14 -9 27.5t11 19.5q10 8 23.5 7t21.5 -11q39 -43 73 -74.5t65 -48.5v910 q-74 -37 -189 -129q-12 -8 -25.5 -6.5t-19.5 12.5q-11 15 -11 25q0 7 5 12zM301 291q6 0 18 4q49 18 81 113.5t32 236.5q0 254 -17.5 408.5t-72.5 179.5q-10 6 -18 7h-7q-7 0 -16 -1v-948z" />
<glyph unicode="E" horiz-adv-x="339" d="M4 494v49q0 102 62 157q6 4 10 8.5t12 8.5q-10 8 -18.5 16t-16.5 21q-25 33 -36 81t-11 105q0 49 8.5 107.5t24.5 117.5v318q0 33 31 33q35 0 34 -33v-189q8 4 17.5 8.5t21.5 4.5q27 0 46.5 -19.5t34 -44t23.5 -50.5t13 -38q8 -31 13.5 -62.5t5.5 -64.5q0 -47 -12.5 -82 t-41.5 -53q-37 -22 -63 -22h-2q-26 1 -45 12q-27 14 -45 45q2 -90 39 -137q27 -39 84 -50q16 0 25 -1t13 -3q10 -4 18.5 -14t4.5 -21q-4 -31 -31 -30h-18q-4 0 -8 1t-9 1q-16 0 -38.5 -6t-40.5 -19q-39 -31 -39 -106v-27.5t-2 -23.5v-11q0 -53 4 -92t26 -61q23 -23 71 -34 t130 -11q35 0 35 -33q0 -14 -9.5 -24.5t-25.5 -10.5q-100 0 -157.5 15.5t-92.5 50.5h2q-37 37 -43 91q-4 40 -4 89v33zM104 1061q0 -33 10.5 -73t32.5 -52v2q4 -2 14.5 -2t28.5 10q23 23 23 78q0 51 -18 113q-16 53 -30.5 77.5t-23.5 24.5q-2 0 -8 -9t-16 -38v2 q-4 -10 -6 -20.5t-7 -20.5v-92z" />
<glyph unicode="F" horiz-adv-x="575" d="M6 1004q-4 17 -4 32q0 56 55 101q31 25 75 42t97 17q33 0 67 -7t71 -26q16 -8 33.5 -14t35.5 -10q12 43 47 76.5t81 57t98 33.5q32 6 61 6q19 0 37 -3q63 -10 96 -49q29 -35 29 -86v-13q-6 -86 -74 -121h2q-25 -16 -56.5 -22t-66.5 -6q-94 0 -203 35q-2 -27 -2 -66 t-2 -70q0 -10 -1 -26.5t-1 -26.5v-47q0 -12 -1 -19.5t-1 -19.5h250q33 0 33 -35q0 -31 -33 -30h-252q-4 -121 -17.5 -221.5t-51.5 -155.5q-80 -111 -164 -111h-11q-4 0 -6 1t-4 1q-47 8 -78.5 49t-50.5 111q-4 14 3 26.5t22 14.5q29 6 37 -27q12 -43 33.5 -74.5t46.5 -35.5 q27 -4 56.5 18.5t61.5 65.5q20 29 32.5 84t19 122.5t8.5 142.5t4 144q0 59 1 110.5t5 94.5q-10 4 -26.5 10t-32.5 17q-6 4 -12.5 5t-12.5 5v-2q-57 26 -109 26h-4q-41 0 -74.5 -12t-56.5 -29q-14 -12 -20 -32.5t-6 -34.5q4 -8 7 -12t5 -7v3q23 -8 54.5 6t51.5 28h-2 q10 10 24.5 8t25.5 -16q16 -27 -11 -47q-6 -4 -24.5 -13t-42 -18.5t-50 -13.5t-49.5 2q-14 6 -29.5 19.5t-23.5 44.5zM494 1114q55 -18 105 -28.5t93 -10.5q53 0 86 17h-2q20 12 30.5 28.5t14.5 44.5v10q0 59 -71 68q-17 3 -35 3q-21 0 -44 -4q-42 -7 -79 -24.5t-63.5 -44 t-32.5 -57.5v2q0 -2 -1 0t-1 -4z" />
<glyph unicode="G" horiz-adv-x="339" d="M8 496q0 111 66 163q16 14 26 19q-14 10 -21 19.5t-18 23.5q-53 78 -53 203q0 51 9.5 111.5t27.5 125.5v344q0 10 9 19.5t24 9.5q14 0 23.5 -9t9.5 -20v-209q18 16 41 13q27 0 49 -19.5t37.5 -46t24.5 -54.5t13 -42q18 -66 19 -135q0 -47 -11.5 -84t-39.5 -56 q-38 -27 -67 -27q-3 0 -5 1q-31 2 -47 14h2q-18 10 -30.5 25.5t-22.5 32.5q4 -104 41 -158q16 -23 38.5 -37t55.5 -18q10 0 20.5 -1.5t18.5 -1.5q10 -4 19 -14t5 -24q-2 -12 -11 -18.5t-19 -6.5h-19.5t-19.5 2q-18 -2 -43 -8t-43 -23q-43 -35 -43 -114q0 -41 9 -79t21.5 -68 t26.5 -48t25 -18q10 0 26 49v-2q23 78 23 229q0 10 10 21.5t25 11.5q14 0 21 -9.5t11 -21.5q0 -2 1 -29.5t2 -73.5t3.5 -107.5t4.5 -131.5v-4v-2v-4q2 -51 3 -112.5t3 -114.5q2 -115 5 -213.5t3 -157.5q0 -55 -15.5 -80t-31.5 -29q-12 -4 -23 -4q-12 0 -28.5 8.5t-26.5 20.5 q-25 31 -46.5 91t-21.5 149q0 86 27 203.5t86 248.5q0 16 1 17.5t-1 17.5q-16 -23 -31.5 -29t-29.5 -6q-31 0 -57.5 25.5t-46 65.5t-32 89.5t-12.5 96.5zM111 1049q0 -33 11 -76t34 -58q4 -2 17 -1t32 12q10 10 18 35.5t8 56.5q0 47 -16 112v-2q-18 59 -35.5 87t-27.5 28 q-6 0 -27 -53q-2 -4 -3 -9t-7 -18q-4 -8 -4 -10v-104zM170 -231q0 -80 15.5 -129.5t33.5 -69.5v2q0 -2 1 -3t1 -3v-2l8 2v10q0 4 1 12.5t1 22.5q0 72 -2 184.5t-6 259.5q-29 -88 -41 -158.5t-12 -127.5z" />
<glyph unicode="H" horiz-adv-x="688" d="M27 309q-7 22 -7 48q0 31 9 65q16 66 48 135.5t74 138t78 121.5v436q0 33 31 33q35 0 35 -33v-346q4 4 6 10.5t6 10.5l19 16q0 53 4 106.5t11 100.5t18.5 84t27.5 55q27 31 64 31q41 0 60 -16.5t30 -32.5q6 -15 6 -35q-1 -17 -5 -38q-10 -44 -34.5 -93t-56 -97t-60.5 -85 q0 -59 4 -122t8.5 -123.5t10.5 -112.5t10 -91q2 -12 11 -44t30.5 -65.5t61 -60t100.5 -26.5q32 0 32 -31q0 -33 -32 -33q-86 0 -137.5 37t-80 82t-39 85t-10.5 48q-2 14 -7 50t-10 86t-9 111.5t-6 129.5q-8 -10 -15.5 -21.5t-17.5 -23.5v-269v-53t-6 -85t-21.5 -90 t-46.5 -69q-16 -12 -46 -18q-10 -2 -21 -2q-23 0 -52 8q-29 12 -48 33.5t-27 54.5zM92 324q6 -27 35 -37q18 -8 31 -8t22 8q20 14 30.5 47t15.5 69.5t5 71.5t-2 53v172q-31 -49 -59.5 -103t-48 -104.5t-27.5 -94.5q-5 -25 -5 -46q0 -15 3 -28zM391 1038q53 74 77 128 q16 37 16 60q0 10 -3 17h2q-2 2 -7 6t-25 4q-9 0 -13 -6q-23 -23 -33 -80t-14 -129z" />
<glyph unicode="I" horiz-adv-x="382" d="M-5 404q3 14 17 20h-2q10 8 23.5 6t19.5 -16v2q35 -51 60.5 -79t43 -41t28 -15t16.5 0q23 6 37 43.5t23 91.5q9 56 11 116q1 30 1 58t-1 55v602q-10 -2 -18 -3t-21 -5q10 -39 13.5 -105.5t3.5 -138.5q0 -53 -1 -104t-3 -86q-8 -29 -37 -29q-12 2 -21.5 10.5t-9.5 22.5 q2 47 3 92t1 90q0 90 -3 159t-11 85q-16 10 -16 22q-4 12 4 23.5t20 15.5l123 25q4 1 8 1q10 0 19 -7q12 -10 12 -27v-641v-52t-2 -80t-8 -93t-19.5 -91t-35 -74t-52.5 -42q-6 0 -12 -1t-14 -1q-82 0 -193 166q-8 8 -8 18q0 4 1 7z" />
<glyph unicode="J" horiz-adv-x="299" d="M23 1249q0 35 26 37q41 8 83 17.5t83 17.5h-2q3 1 6 1q9 0 23 -7q12 -10 12 -27v-643q0 -82 -6 -373q0 -86 -2 -182t-3 -184t-3 -162t-4 -115q-4 -53 -20.5 -78.5t-35.5 -31.5q-12 -4 -20 -4q-31 0 -60 32q-27 31 -44 87.5t-17 138.5q0 94 31.5 222t111.5 284 q0 76 1 145.5t3 121.5t3 84t1 36l-2 -4v585q-23 -4 -39 -8t-38 -8q14 -53 18 -146.5t4 -187.5q0 -78 -1 -147.5t-3 -108.5q-4 -12 -13.5 -21.5t-21.5 -9.5q-33 0 -33 35q6 123 7 248q0 121 -7.5 212t-17.5 116q-16 2 -20 28zM109 -223q0 -74 13 -121t30 -66q2 -4 4 -6 q0 -2 2 -2q4 4 6 14t4 35q4 78 6 202t6 284q-37 -98 -54 -188.5t-17 -151.5z" />
<glyph unicode="K" horiz-adv-x="722" d="M0 293q4 10 17.5 14t27.5 -2q14 -8 33 -14q14 -4 32.5 -8t39.5 -4q31 0 55 12h-2q57 35 57 170v88q0 23 1 47.5t1 48.5q2 51 3 105.5t1 107.5q0 68 -2 131.5t-8 115.5t-16.5 89t-24.5 53h2q-10 6 -12 6q-35 0 -55.5 -32.5t-32 -71.5t-15.5 -72l-4 -33q0 -14 -10 -23 t-27 -9q-14 2 -23 12t-5 25v-2q0 4 5 48t23.5 94t52 91t91.5 41q35 0 57 -27q37 -41 51.5 -132t18.5 -212q25 43 55.5 90t65 89t71.5 72t74 36q12 2 23 2q46 0 79 -33q36 -36 36 -81q0 -7 -1 -13v2q-4 -35 -29.5 -70.5t-64.5 -69.5t-86 -66.5t-90 -63.5q-41 -25 -78 -50.5 t-41 -35.5q6 -23 39 -76t80 -123t101.5 -147.5t105.5 -145.5q6 -10 5 -24.5t-11 -22.5h2q-10 -6 -23 -6q-12 0 -20 4q-31 39 -70 91t-80 109.5t-80 117t-65 110.5q0 -27 -1 -51.5t-1 -48.5v-84q0 -168 -90 -225q-20 -12 -44 -17.5t-44 -5.5q-51 0 -92.5 16.5t-45.5 18.5 q-15 10 -15 26q0 9 5 19h-2zM315 819l17 -8v2q4 6 8 14.5t8 16.5q-10 -6 -18 -12.5t-15 -12.5zM348 844q12 10 28.5 21.5t33.5 23.5q4 4 8 5t8 5q37 25 79 52.5t77.5 57t60.5 59.5t29 54q-4 16 -19 35q-16 16 -32 17q-11 -1 -15 -3q-31 -6 -67.5 -42.5t-71.5 -86 t-66.5 -103.5t-52.5 -95z" />
<glyph unicode="L" horiz-adv-x="894" d="M12 291q-3 14 -3 28q0 41 25 85q34 60 97 98h-2q18 10 52 21.5t79 11.5q29 0 63.5 -7.5t77.5 -27.5q29 57 56.5 133t50.5 153q-49 -20 -95 -30.5t-82 -15.5t-58.5 -5h-24.5q-35 0 -35 35q0 31 35 31l24 1q25 1 64 8t90 21.5t104 38.5q12 49 25.5 104.5t24.5 106.5 q16 68 36.5 114t41 73.5t39 41t32.5 15.5q6 1 12 1q45 0 78 -42q25 -37 25 -96q0 -43 -15.5 -92t-50.5 -103q-41 -59 -89 -100t-103 -72q-25 -98 -56.5 -186t-74.5 -166q23 -16 45 -34.5t43 -39.5q47 -47 93 -71.5t83 -33.5t60.5 -9h25.5h4q31 0 35 -31q1 -4 1 -7 q1 -9 -7 -17q-10 -10 -23 -11h-20q-18 0 -51 3t-73 17.5t-86 40t-91 72.5h2q-20 16 -37 31.5t-33 30.5q-59 -92 -131 -143.5t-170 -51.5q-41 0 -71.5 19.5t-41.5 56.5zM78 305q6 -24 47 -24q76 0 135 45t107 116q-27 10 -56.5 19.5t-52.5 9.5q-27 0 -51.5 -7t-46.5 -18h2 q-46 -28 -70 -70q-16 -29 -17 -53q0 -9 3 -18zM610 915q72 45 113 117q31 43 43 83t12 71q0 23 -5 37t-9 24v-2q-8 14 -25 15q-18 -8 -44.5 -52.5t-49.5 -138.5q-4 -16 -7 -31.5t-7 -31.5q-6 -29 -9.5 -45.5t-11.5 -45.5z" />
<glyph unicode="M" horiz-adv-x="737" d="M12 463q0 43 2 82t4 59q2 10 12.5 19.5t26.5 7.5q10 -4 19.5 -15.5t9.5 -21.5q-4 -29 -5 -63.5t-1 -65.5q0 -59 6 -109.5t20 -68.5v2q2 -4 7 0q12 12 19 40.5t12.5 66.5t6.5 82t1 89q0 29 -1 57.5t-1 53.5v117q0 86 2 164.5t9 145t22.5 117t41.5 76.5q23 23 53 27 q4 1 9 1q26 0 47 -23v2q10 -10 17 -27.5t16 -40.5q6 16 16 32.5t16 26.5q27 23 57.5 28t55.5 -19q18 -18 29.5 -58.5t18.5 -93.5t9 -118.5t2 -135.5q0 -33 -1 -65.5t-1 -65.5v-104q0 -8 -1 -15.5t-1 -17.5v-78q0 -68 8.5 -134.5t36.5 -94.5v2q20 -21 47 -21q31 0 31 -33 t-31 -32q-59 0 -96 39v-3q-41 43 -51 120t-10 159v76q2 16 2 31.5v29.5v76q0 29 1 62.5t1 74.5q0 53 -2 109.5t-7 105.5t-13.5 86t-20.5 51q-2 0 -5 -1t-9 -7q-14 -14 -24.5 -44.5t-17 -70.5t-9.5 -87.5t-5 -94.5v-90t-2 -94v-455q0 -33 -31 -32q-35 0 -34 32v482v82t2 77 q0 47 -3 95.5t-8.5 90.5t-12.5 72.5t-19 42.5q-2 0 -2 1t2 1q-6 0 -21 -16q-16 -16 -25.5 -56t-13.5 -92.5t-6 -111.5t-2 -113v-272q0 -131 -10 -225.5t-45 -130.5q-20 -20 -53 -21q-31 0 -52 25q-29 31 -37 94t-8 125z" />
<glyph unicode="N" horiz-adv-x="489" d="M2 1004v8v54t5 82t16.5 86t33.5 66q25 29 62 29q39 0 63 -24q35 -35 43 -110t8 -169v-231q0 -61 1.5 -138t6.5 -150t17 -131.5t35 -80.5q12 -16 22 -16q-2 0 2 4q14 14 23.5 54t14.5 92t7.5 112.5t2.5 120.5v89t-3 74v84v32.5t-2 37.5q0 23 -1 45.5t-1 44.5 q0 88 12.5 170t59.5 127v-2q39 43 102 43q33 0 33 -33q0 -12 -9 -21.5t-24 -9.5q-31 0 -53 -22q-35 -35 -44 -103.5t-9 -142.5v-49.5t2 -46.5q0 -10 1 -18.5t1 -18.5v-115q0 -37 1 -75.5t1 -77.5q0 -78 -3 -147.5t-10 -128t-20.5 -101.5t-33.5 -64v3q-22 -24 -50 -24 q-4 0 -8 1q-33 4 -59 27q-29 29 -44.5 84t-23.5 128.5t-10 160.5t-2 182v129q0 23 1 49t1 53q0 76 -7 141.5t-30 87.5q-6 6 -14 7q-8 0 -13 -7q-14 -16 -22 -48.5t-12 -70.5t-4 -74t2 -56l18 -760q0 -14 -9 -22.5t-22 -8.5q-31 0 -34 29z" />
<glyph unicode="O" horiz-adv-x="411" d="M18 842q0 68 3.5 132t12.5 120.5t26.5 100.5t43.5 73q39 35 86 35q23 0 46.5 -10.5t42.5 -28.5q47 -47 64 -136.5t22 -189.5q6 4 11 9t13 11h-2l12 13h2q25 23 48 0h-3q13 -10 13 -25q0 -13 -10 -22q-18 -18 -39 -32.5t-45 -31.5v-168q0 -45 -1.5 -108.5t-9.5 -128 t-25.5 -123t-49.5 -90.5q-16 -16 -39 -23.5t-47 -7.5q-55 0 -89 50t-52.5 124t-25 159t-6.5 152v54q0 23 -1 46t-1 46zM84 752q0 -10 1 -18.5t1 -16.5v-21q0 -78 6 -154.5t19.5 -136t33 -96.5t48.5 -37q20 0 36 19q27 25 41.5 77t20.5 111.5t7 116.5t1 94v70q2 16 2 33.5 v37.5q-10 -2 -20.5 -2h-20.5q-27 0 -50.5 8.5t-39.5 18.5q-23 16 -45.5 39t-38.5 45q-2 -43 -2 -81v-73v-34zM104 1102q-2 -6 -2 -14q0 -11 4 -26q6 -26 17.5 -54.5t32 -55t47.5 -41.5h-2q23 -12 48 -12t52 6q-2 45 -6 92t-11.5 89t-20.5 77t-34 56q-23 18 -39 18 q-10 0 -20 -5t-18 -11h2q-16 -16 -28.5 -47t-21.5 -72z" />
<glyph unicode="P" horiz-adv-x="696" d="M-8 735v183q0 10 2 42.5t11 75.5t28.5 91.5t55.5 88t88 66.5t130 27t133.5 -23.5t93 -61.5t60 -84t34 -92.5t14.5 -86t3 -62.5q0 -37 -3 -76t-12 -75.5t-26.5 -68.5t-46.5 -52q-25 -14 -51.5 -22.5t-54.5 -8.5q-20 0 -43 4t-43 10q2 -72 3 -137t2 -115.5t1 -81.5v-30 q0 -31 -33 -31q-14 0 -24.5 7t-10.5 22q0 2 -1 26.5t-1 65.5q-2 51 -3 118.5t-2 141.5t-2 147.5t-2 137t-1 109.5v67q0 33 33 33t32 -33v-51t2 -82q2 -53 2 -113.5t2 -130.5q25 -10 48.5 -15.5t42.5 -5.5q35 0 63 19q18 14 29.5 38.5t18.5 55.5t9 63.5t2 63.5t-7 87 t-33.5 112.5t-80 98.5t-147.5 42q-90 0 -140 -43t-74.5 -98.5t-30 -108.5t-5.5 -71v-183q0 -16 -10 -24.5t-20 -8.5q-35 0 -35 33z" />
<glyph unicode="Q" horiz-adv-x="382" d="M-4 754v61q0 72 3 141.5t12 131t25.5 109.5t45.5 77q35 35 82 35q53 0 90 -37q29 -29 46 -78t26.5 -107.5t11.5 -120t2 -116.5v-156q0 -45 -1 -108.5t-9 -128t-25.5 -123t-50.5 -90.5v4l-8 -12l-2 -3q16 -76 42.5 -144.5t67.5 -121.5v2q9 -9 9 -22q0 -16 -11 -23 q-16 -8 -24 -8q-18 0 -27 12q-41 55 -71.5 130t-47.5 153h-14q-55 0 -89 50t-51.5 125t-23.5 160t-6 154v23q0 8 -1 15t-1 16zM61 700q0 -80 6.5 -155.5t19.5 -136t32.5 -97.5t48.5 -37q-12 78 -19.5 152t-10.5 132q-2 44 -2 75v20q1 37 1 43q0 10 9.5 19.5t21.5 9.5 q14 0 23.5 -11.5t9.5 -21.5v-32.5t2 -82t8 -118t18 -135.5q18 33 27.5 83t13.5 103t4 102.5v81.5v39q0 6 1 13.5t1 15.5v90q0 49 -2 105.5t-9 107.5t-21.5 94t-36.5 66q-10 8 -21.5 13t-21.5 5q-18 0 -37 -18q-23 -20 -35 -62.5t-19 -94.5t-9.5 -109.5t-2.5 -108.5v-150z M168 274q0 -8 2 -10l10 12q-2 0 -3 -1t-3 -1h-6z" />
<glyph unicode="R" horiz-adv-x="538" d="M-8 817v35q0 45 1 104.5t8 118t22.5 110.5t46.5 83q20 18 43.5 29.5t50.5 11.5q29 0 56.5 -20.5t41.5 -51.5t14 -90q0 -53 -14 -116.5t-39.5 -128t-60.5 -123t-76 -103.5q25 -59 58.5 -127t70.5 -126t73 -99t64 -48q13 -2 23 -2q25 0 39 13q16 14 16 35.5t-2 21.5 q-4 16 4 29.5t23 15.5h-2q10 4 21 -4t15 -23q1 -2 3 -15q2 -9 1 -21v-10q-1 -18 -7.5 -39t-22.5 -39q-16 -16 -38 -21.5t-46 -5.5h-19.5t-19.5 2q-39 6 -78 43t-74.5 89t-67.5 110.5t-57 107.5q2 -57 4.5 -112.5t3.5 -100.5t2 -73.5t1 -30.5q4 -16 -6.5 -23.5t-24.5 -9.5 q-12 0 -23.5 7t-13.5 20v34q-2 45 -4 122t-4 159t-4 153.5t-2 108.5zM43 723l16 -6v26q-4 -6 -8 -11t-8 -9zM57 763q0 -9 2 -20q35 43 63 94.5t47 105.5t29.5 105.5t10.5 94.5q0 41 -12 71q-6 16 -15.5 20.5t-17.5 4.5q-16 0 -25.5 -4t-19.5 -12q-20 -20 -32.5 -55t-19 -78 t-8.5 -88.5t-2 -86.5v-133v-19z" />
<glyph unicode="S" horiz-adv-x="460" d="M6 1075q12 111 60.5 173.5t119.5 62.5q78 0 123 -58q23 -29 33 -71.5t10 -83.5q0 -53 -9 -94t-11 -46l2 3q-8 -31 -41 -27q-12 4 -20.5 15.5t-4.5 27.5q4 10 11.5 49t7.5 82q0 29 -7.5 58.5t-21.5 52.5q-26 26 -69 26h-3q-27 0 -47 -15.5t-33.5 -40t-21.5 -55t-10 -63.5 q-2 -24 -2 -46.5t2 -45.5q4 -45 14 -81t27 -58.5t37 -26.5q61 -12 110 -32.5t82 -60.5q34 -40 48 -102q10 -42 9 -98q0 -27 -2 -57q-6 -55 -26.5 -101.5t-49 -78t-64.5 -50t-69 -18.5h-8q-12 0 -35.5 10.5t-46 40t-38.5 83.5q-13 43 -14 108q0 16 1 32q2 10 11.5 19.5 t23.5 9.5q33 -4 33 -33q-2 -24 -2 -45q0 -64 14 -104q18 -53 57 -57q20 -2 45 11t46.5 39.5t36 61.5t16.5 76q2 16 2 29.5v27.5q0 117 -51.5 163t-143.5 65q-37 6 -63.5 37.5t-43.5 76.5q-16 44 -22 100q-4 33 -4 66q0 22 2 43z" />
<glyph unicode="T" horiz-adv-x="155" d="M-446 1309q63 0 142 -1t163 -2t167 -1h156q94 0 161 1t83 3q25 4 40 17t13 32q-2 14 -15 27.5t-36 13.5q-14 0 -24.5 9t-10.5 24q0 14 10.5 23t24.5 9q53 0 83 -33.5t30 -68.5q1 -6 1 -11q0 -35 -22 -65q-26 -35 -86 -43q-25 -4 -98.5 -5t-169.5 -1h-76v-997 q0 -29 -31 -29q-35 0 -34 29v997q-115 2 -221.5 2t-174.5 2q-20 0 -46.5 1t-31.5 1q-32 0 -32 31q0 35 35 35z" />
<glyph unicode="U" horiz-adv-x="440" d="M-2 1067q0 59 10 122.5t37 94.5q18 23 48 24h2q28 0 50 -22q35 -37 44.5 -127t9.5 -219v-84q0 -10 -1 -21.5t-1 -21.5v-68q0 -51 1 -118.5t6 -133t16 -120t32 -76.5q8 -4 16 -4q12 16 20.5 54t13.5 86t6 103.5t1 108.5q0 35 -1 67.5t-1 59.5v72v29.5t-2 31.5v74 q0 39 2 79t8.5 74.5t17.5 65.5t32 51q37 39 94 39q30 0 30 -31q0 -35 -30 -34q-10 0 -23.5 -5.5t-23.5 -11.5q-29 -33 -36 -95t-7 -128v-76q2 -16 2 -33.5v-29.5v-70q2 -35 2 -78v-73q0 -135 -12.5 -238.5t-47.5 -140.5v2q-8 -10 -21 -16.5t-24 -6.5q-16 0 -33.5 9.5 t-29.5 19.5q-23 27 -37 78t-22.5 116.5t-10.5 142.5t-2 156v31v39t2 41v94q0 47 -1 93.5t-4 85t-9 65.5t-17 37q-10 12 -12 10q-16 -16 -22.5 -65.5t-6.5 -104.5q0 -35 2.5 -68.5t4.5 -62.5q0 -31 -27 -35q-33 0 -37 27q-2 12 -5 50t-3 85z" />
<glyph unicode="V" horiz-adv-x="475" d="M-4 786v78q0 55 3 120t13 122q6 31 13.5 58.5t19.5 49t31.5 35t48.5 15.5q45 -4 55 -35t17 -72q6 -41 8 -94t2 -117v-121q0 -31 -1 -63.5t-1 -65.5q0 -86 3 -164.5t13 -140.5q22 -108 50 -108h3q16 -4 34 26.5t28 83.5q12 63 17 143t5 164q0 90 -5 188.5t-13 176.5 q-4 20 -4 33q-2 20 -3 35.5t-3 33.5q-20 25 -27.5 51.5t-7.5 47.5q0 8 4 21t31 20q16 -4 23 -11.5t18 -17.5q4 -10 10 -31.5t10 -50.5q21 -20 41 -20q33 0 33 -33t-33 -33q-23 0 -31 2q2 -10 2 -20.5t3 -20.5q10 -78 15 -175t5 -196q0 -90 -6 -172t-21 -147 q-16 -68 -42.5 -115t-82.5 -51q-57 4 -81.5 52t-34.5 114t-14.5 145.5t-4.5 169.5q0 33 1 66t1 63v121q1 28 1 54q0 65 -4 118q-5 74 -15 84q-8 -2 -23 -24l2 2q-6 -16 -13 -38t-11 -48q-12 -53 -14.5 -116t-2.5 -114v-104q0 -33 -26 -33q-14 -4 -24.5 5t-12.5 24 q-2 14 -2 30z" />
<glyph unicode="W" horiz-adv-x="604" d="M10 1073q0 31 2 62.5t7.5 62.5t13.5 55.5t22 40.5q23 23 51 24h3q27 0 49 -22q35 -35 45 -117.5t10 -199.5q0 -29 -1 -57.5t-1 -59.5v-112q0 -51 1 -120t6 -135.5t15.5 -121t30.5 -76.5l8 -4t7 -2l4 2q10 14 17 46t11 72t7.5 86t3.5 93v194q0 8 -1.5 17.5t-1.5 19.5v402 q0 16 11.5 25t21.5 9q35 0 35 -34v-447q2 -41 2 -92v-92q2 -90 12.5 -175t38.5 -120q6 -6 15 -6q14 14 22 50t13.5 85t7.5 106.5t2 110.5q0 37 -1 71t-1 62q-2 16 -2 38v36v61q0 20 -1 44t-1 46q0 78 11 149t52 112q37 36 92 36q31 0 31 -32q0 -33 -31 -33q-23 0 -45 -19 q-29 -29 -38 -91t-9 -128q0 -23 1 -43t1 -39v-94q0 -10 1 -21.5t1 -21.5q0 -33 1 -65.5t1 -65.5q0 -70 -2 -134.5t-9 -117.5t-18.5 -92t-29.5 -57v2q-10 -12 -22.5 -17.5t-24.5 -5.5q-37 0 -56 19q-20 31 -27 45t-14 24q-8 -23 -14 -40t-16 -27q-20 -20 -49 -21 q-35 0 -62 27t-41 76t-21 115.5t-9.5 145.5t-2.5 163v112q0 27 1 54.5t1 56.5q0 45 -1 89t-6 82t-12 65.5t-19 39.5q-4 4 -11 -8q-12 -12 -16 -58t-4 -102q0 -35 1 -69.5t5 -63.5q0 -31 -31 -35q-14 -4 -25.5 4.5t-11.5 24.5q0 10 -3 47t-3 84z" />
<glyph unicode="X" horiz-adv-x="673" d="M-6 344q0 12 8 21.5t25 9.5q14 0 23 -9.5t9 -21.5q0 -4 1 -12t7.5 -17.5t17.5 -16.5t30 -7q25 0 48 34.5t45.5 92t43 130.5t39.5 146q-6 23 -13.5 49.5t-13.5 49.5q-4 16 -7 31.5t-7 31.5q-12 57 -27.5 122.5t-32 124t-31 100.5t-26.5 48q-10 -4 -18 -16 q-8 -8 -12.5 -26.5t-6.5 -40t-1 -42t3 -30.5q0 -31 -26 -35q-14 -4 -24.5 4t-12.5 22q0 8 -1 34t1 55.5t10 60.5t27 51q29 29 63 29q57 0 93 -111.5t87 -333.5l9 -32q0 2 1 4t1 4q2 8 4 15t4 16q49 225 85 331.5t89 106.5q37 0 65 -29q18 -20 26.5 -51t10.5 -60.5t1 -55 t-1 -34.5q-2 -14 -12 -22t-25 -4q-29 4 -28 35q2 16 2 37.5t-2 43t-8.5 39t-14.5 27.5q-2 8 -10 8q-10 -12 -24.5 -53t-30 -96t-31.5 -117.5t-29 -118.5q-4 -23 -10 -44t-10 -42q-4 -23 -9.5 -42t-9.5 -42q16 -74 37 -146.5t42.5 -130t45 -93t45.5 -35.5q20 0 32.5 7 t19 16.5t7.5 18.5t1 11q0 12 8.5 21.5t24.5 9.5q14 0 23 -9.5t9 -21.5q0 -16 -6 -36.5t-19.5 -39t-38 -32t-61.5 -13.5q-66 0 -113.5 90t-90.5 248q-45 -154 -94.5 -246t-114.5 -92q-37 0 -59.5 13.5t-37 32t-19.5 39t-5 36.5z" />
<glyph unicode="Y" horiz-adv-x="325" d="M6 464v54v766q0 10 9.5 21.5t21.5 11.5q14 0 23.5 -11.5t9.5 -21.5v-766q-2 -18 -1 -51t6 -67.5t17 -64.5t33 -42h-2q8 -4 18 -4q27 0 72 28v37q0 78 1 154t2 143.5t1 122.5v96v29q0 49 1 105.5t8 108.5t22.5 97t44.5 74h-2q35 35 82 35q35 0 35 -33t-35 -33 q-18 0 -37 -18q-20 -20 -30.5 -59t-15.5 -86.5t-5 -96.5v-92v-31v-115.5t-1 -151.5t-2 -176t-3 -189q-2 -92 -4.5 -187.5t-3.5 -179.5t-3 -152.5t-4 -109.5q-4 -57 -21.5 -80t-33.5 -31v2q-8 -2 -19 -2q-12 0 -28.5 8.5t-28.5 22.5q-25 31 -43 87t-18 136q0 92 29.5 215 t107.5 273q-33 -16 -66 -17q-29 0 -51 15q-35 20 -52 60t-25.5 84t-8.5 82zM139 -250q0 -72 13.5 -117t29.5 -63q2 -4 4 -6q0 -2 2 -2q4 4 6.5 14t4.5 37q4 72 6 189.5t6 283.5q-37 -98 -54.5 -186t-17.5 -150z" />
<glyph unicode="Z" horiz-adv-x="950" d="M2 240q-9 9 -9 19q0 11 11 22q4 4 13.5 13t25.5 25q47 53 133 147.5t203 213.5h-80q-35 0 -35 33t35 32h145q92 94 188.5 186.5t182.5 164.5q-63 -18 -132 -38t-135.5 -35t-127 -24.5t-109.5 -9.5q-51 0 -78 15q-18 10 -24 20t-10 18q-3 14 -3 29q0 42 22 88 q28 62 87 105q68 53 150 53q45 0 110 -33q20 -14 2 -41q-14 -25 -43 -10q-16 8 -33.5 13t-35.5 5q-55 0 -111 -39q-42 -34 -64 -74q-19 -34 -19 -64q0 -5 1 -11q19 -6 52 -6q30 0 70 5q85 11 191.5 36.5t219 60.5t204.5 68q8 4 19 4q14 4 24.5 -2t14.5 -19v2q2 -5 2 -11 q0 -7 -3 -13q-5 -12 -16 -19q-4 -2 -11 -4t-11 -4q-33 -16 -84 -55t-113.5 -95.5t-134.5 -124t-145 -141.5h88q33 0 33 -32q0 -33 -33 -33h-152q-43 -43 -93 -94t-98 -101.5t-91 -96.5t-74 -79q100 12 211 13q43 0 87 -1.5t85 -3.5h24q41 -2 80 -3t78 -1q57 0 98 5.5 t52 17.5q-8 0 -9 -4q-8 25 -35.5 34t-62.5 9q-27 0 -54.5 -3t-50 -8.5t-38.5 -9.5l-15 -4q-14 -4 -27.5 3t-17.5 18q-4 12 2.5 24.5t18.5 16.5q2 0 4 2q2 0 3 1t3 1q18 4 66.5 14t101.5 10q55 0 104.5 -19.5t65.5 -72.5q4 -20 0 -33.5t-10 -23.5q-23 -27 -74 -36t-129 -9 q-35 0 -72 1t-82 3t-101 3t-103 1q-80 0 -155 -6t-138 -25q-20 0 -29 19v-2zM254 1067q0 -2 4 -2q-2 0 -4 2zM262 1059h2h-2zM827 332l2 -2z" />
<glyph unicode="`" horiz-adv-x="290" d="M2 1268h2q-6 12 -1 25.5t17 17.5l-2 -2q12 8 26.5 2t18.5 -19q14 -33 41 -63.5t56.5 -56t55.5 -44t38 -26.5q4 -4 6 -4l2 -2h-2q29 -14 10 -49q-8 -10 -26 -11q-10 0 -19 4q-8 4 -37.5 23.5t-65.5 50.5t-70 71t-50 83z" />
<glyph unicode="a" horiz-adv-x="301" d="M-4 444v84q0 86 3 164t14.5 135.5t34 92t63.5 34.5q45 0 73 -32v2q18 -20 28.5 -50t14.5 -60t3 -54.5t-1 -34.5v-338q0 -10 -1 -19.5t-1 -15.5q-1 -10 -1 -19q0 -33 12 -50q4 -6 8 -11.5t8 -9.5q4 -6 6 -10l8 12q16 4 25.5 -4t13.5 -20v2q1 -5 1 -9q0 -9 -5 -17 q-8 -12 -20 -15q-6 -2 -16.5 -2t-24.5 4l-15 8q-4 0 -9 2t-21 16q-8 6 -13 11q-2 2 0 2q-16 -27 -32.5 -34t-40.5 -7q-35 0 -62 26h2q-31 29 -45 85q-11 44 -11 100q0 15 1 32zM61 442q-1 -18 -1 -34q0 -58 12 -88q14 -38 24 -46q10 -10 15 -10q14 0 31.5 30t19.5 89v25 l4 319v32.5t-3 42t-9.5 41t-16.5 29.5q-10 16 -24 17q-18 0 -29.5 -42t-16 -98.5t-5.5 -118t-1 -102.5v-86z" />
<glyph unicode="b" horiz-adv-x="370" d="M-12 338q0 11 8 20l12 25q10 23 33 78q-8 41 -15.5 89t-15.5 105q-2 18 -5 57.5t-6 89.5t-5 107.5t-2 112.5q0 51 3 98t9 83t16.5 57.5t26.5 23.5q5 1 11 1q10 0 20 -2q18 -3 37 -19q63 -68 63 -293q0 -100 -12 -213q-8 -88 -24.5 -169t-32.5 -136q12 -47 24 -85t27 -63 q10 -16 21.5 -26.5t21.5 -12.5l12 13q14 18 18.5 58t4.5 93q0 51 -4.5 109.5t-10.5 108.5t-12 88t-8 50q-2 10 3 21.5t17 21.5q10 4 22.5 -5t18.5 -15q12 -16 20.5 -25.5t12.5 -15.5q6 -8 10 -10q33 0 33 -33t-33 -33l-24 6q10 -53 16 -121.5t6 -138.5q0 -59 -9 -112.5 t-28 -83.5q-12 -20 -27.5 -29.5t-25.5 -11.5h-10q-45 0 -77 39t-58 110q-14 -25 -27 -41q-23 -14 -41 0q-14 12 -14 29zM57 1018q0 -90 6.5 -196.5t18.5 -211.5q6 35 12 74t10 82q6 59 8.5 110.5t2.5 92.5q0 63 -5.5 107t-12.5 72t-15 43t-14 21q-10 -57 -11 -194zM61 1221 l5 -4q0 -2 1 -2.5t1 -2.5q2 4 2 8.5t2 8.5z" />
<glyph unicode="c" horiz-adv-x="270" d="M-2 473v84q0 66 2 135.5t12.5 128t33 96t63.5 37.5h5q40 0 68 -28q18 -18 27.5 -48t14.5 -58.5t5 -54.5v-36q-4 -12 -12 -21.5t-22 -9.5q-16 0 -24.5 11.5t-4.5 27.5v-2v30.5t-4 42t-11.5 42t-19.5 31.5q-6 8 -22 8t-25.5 -39t-13.5 -91t-5.5 -108.5t-1.5 -93.5v-86 q-1 -17 -1 -33q0 -65 14 -106q16 -51 33 -64v2l6 -4q10 8 17 29.5t9 58.5q0 14 12.5 23.5t22.5 9.5t20.5 -11t10.5 -22q-2 -53 -16.5 -91t-45.5 -52l2 2q-14 -10 -32 -10t-37 12h2q-42 25 -64 93q-18 58 -19 136q0 14 1 29z" />
<glyph unicode="d" d="M-4 444v84q0 86 3 164t14.5 135.5t33 92t59.5 34.5q29 0 52 -14v315q0 31 32 31q31 0 31 -31v-430q6 -31 6 -57.5v-40.5l-6 -346q-4 -84 -39 -132t-76 -48q-16 0 -32.5 8t-30.5 18q-27 29 -39 85q-9 42 -9 96q0 17 1 36zM57 442q-1 -18 -1 -34q0 -58 12 -88 q14 -38 24 -46q10 -10 14 -10q14 0 32 30t20 89q0 16 1 30.5t1 30.5q-2 6 -2 11v362q-4 16 -10.5 32.5t-16.5 27.5q-12 12 -22 12q-18 0 -29.5 -42t-16 -98.5t-5.5 -118t-1 -102.5v-86z" />
<glyph unicode="e" horiz-adv-x="270" d="M-6 473q2 16 2 37.5v44.5q0 66 2 136.5t12 129t31.5 96t62.5 37.5h9q36 0 63 -30l-2 2q18 -18 28.5 -48t15.5 -58.5t5 -53.5v-37q-2 -29 -11 -61.5t-27.5 -63.5t-49.5 -54.5t-74 -31.5v-26.5t-2 -22.5q2 -74 16.5 -133.5t30.5 -69.5h-2q6 -2 9 0q8 4 15 24.5t9 63.5 q0 10 11.5 20.5t21.5 12.5q35 -4 35 -35q-2 -53 -18.5 -91t-45.5 -52v2q-16 -10 -30 -10q-16 0 -37 14q-38 27 -60 95q-20 62 -20 147v16zM61 584q33 8 52.5 32.5t30 50t12.5 46t2 22.5v29.5t-3 41t-9.5 42t-18.5 31.5q-10 10 -21 10q-16 0 -24 -33t-13.5 -80t-6.5 -99 t-1 -93z" />
<glyph unicode="f" d="M-92 248q6 14 24 18l-2 -2q6 4 31 18.5t55 43.5q-2 43 -3 94t-3 104v27q-8 158 -12 284t-4 212q0 100 7 156.5t26 76.5q14 10 32 10q31 0 64 -28.5t59.5 -95t44 -174t17.5 -263.5q0 -78 -15.5 -143.5t-38 -118.5t-51 -94t-55.5 -70q0 -10 1 -18.5t1 -18.5v-20 q29 -2 65.5 -30t59.5 -110v3q23 -61 29 -124t6 -118l-1 -29q-1 -28 -4 -69t-9.5 -88.5t-18.5 -88.5t-30.5 -67.5t-45.5 -26.5q-74 0 -97.5 183.5t-23.5 554.5v10q-12 -10 -23 -17.5t-22 -11.5l-20 -10q-10 -4 -22.5 0t-18.5 14q-5 8 -5 16q0 6 3 11zM59 1040q0 -55 1 -118.5 t3.5 -128t5.5 -126t5 -114.5q2 -31 2 -59.5t2 -55.5l3 -21t1 -22q35 53 65.5 138t30.5 196q0 127 -11 216t-28.5 147.5t-37 89t-33.5 41.5q-6 -20 -7.5 -68.5t-1.5 -114.5zM86 178q0 -201 5 -320.5t11.5 -185t14.5 -87t16 -23.5q8 4 16.5 29.5t15.5 65.5t11 90t4 103 t-5 108.5t-17 102.5q-8 37 -26.5 73t-45.5 44z" />
<glyph unicode="g" horiz-adv-x="247" d="M-37 -258q0 59 8.5 131t27.5 136.5t52 109.5t80 53v39q-14 2 -39 16q-47 33 -72.5 122t-25.5 229q0 84 8 149.5t23 112.5q23 63 48.5 83.5t43.5 20.5q39 0 60.5 -42t21.5 -114v-276q0 -2 -1 -2t-1 -4v-252q4 -16 -2 -25v-79l-5 -177v-6q-4 -94 -9 -175t-13 -140 q-4 -16 -9 -41t-17.5 -48.5t-31 -41t-49.5 -17.5q-31 2 -50 30t-29.5 64.5t-14.5 76.5t-4 67zM29 -258q0 -90 12 -131t25 -43q16 0 24 31.5t12 62.5q10 59 15.5 137t9.5 172v6q2 18 2 51v76q-23 -16 -42 -53t-32.5 -86t-19.5 -107.5t-6 -115.5zM59 578q0 -82 7.5 -136.5 t17.5 -88.5t21.5 -51t21.5 -23h-2q2 -2 6 -3q2 51 2 108.5v127.5v276q0 53 -6 72t-10 19q-2 0 -10.5 -11.5t-18.5 -46.5q-10 -29 -19.5 -88t-9.5 -155zM131 262l10 10q-2 0 -3 1t-3 1t-2 1t-2 1v-14z" />
<glyph unicode="h" d="M-4 1155v53.5v32.5t8 20.5t23 10.5q14 0 22 -10.5t8 -20.5v-81t2 -140q0 -27 -1 -45.5t1 -46.5q12 6 28 11t32 5q35 0 59 -24q37 -37 47.5 -135.5t10.5 -268.5v-272q0 -14 -10.5 -23.5t-20.5 -9.5q-33 0 -33 33v207q0 172 -6 279.5t-35 141.5q-4 2 -7 4.5t-5 2.5 q-18 0 -39 -21q-8 -8 -12.5 -29.5t-6.5 -35.5q0 -63 1 -137t2.5 -147t1.5 -141.5v-123.5q0 -14 -10.5 -23.5t-20.5 -9.5q-31 0 -31 33q0 117 -1 259t-3 279v15q0 33 -1 63.5t-1 59.5v100q0 33 -1 68.5t-1 66.5z" />
<glyph unicode="i" horiz-adv-x="126" d="M-12 915q0 23 16 39.5t39 16.5t37 -16.5t14 -39.5t-14 -36t-37 -13t-39 13.5t-16 35.5zM18 233v545q0 10 9.5 20.5t25.5 10.5q10 0 19.5 -10.5t9.5 -20.5v-545q0 -16 -9.5 -24t-19.5 -8q-35 0 -35 32z" />
<glyph unicode="j" horiz-adv-x="135" d="M-178 -258q0 59 8 131t28.5 135.5t53.5 108.5t80 55v127v134.5t1 129t1 113.5v102q0 10 11.5 20.5t21.5 10.5q12 0 21 -9t9 -24v-100q0 -39 -1 -85t-1 -97q0 -80 -1 -163t-1 -155t-1 -126t-3 -75v-8q-4 -94 -9 -175t-13 -140q-2 -16 -7.5 -41t-17.5 -48.5t-30.5 -41 t-49.5 -17.5q-33 2 -52.5 30t-29.5 64.5t-14 76.5t-4 67zM-111 -258q0 -90 12.5 -131t22.5 -43q16 0 25.5 31.5t13.5 62.5q10 59 15.5 137t9.5 172v9q2 10 2 27.5v41.5q0 14 1 23.5t1 31.5q-25 -14 -44.5 -51t-32.5 -86t-19.5 -108.5t-6.5 -116.5zM-27 915q0 23 15.5 39.5 t38.5 16.5t38 -16.5t15 -39.5t-15.5 -36t-37.5 -13q-23 0 -38.5 13.5t-15.5 35.5z" />
<glyph unicode="k" horiz-adv-x="417" d="M-213 1210q-1 5 -1 10q0 10 5 18q8 12 23 17q8 2 25.5 4.5t41 0t49 -9.5t50.5 -25q35 -29 55 -77t20 -116v-295q20 20 46 56t48.5 87.5t38 117t15.5 145.5q0 20 -1 45.5t-5 50.5q0 10 9 22.5t19 12.5h-2q5 1 9 1q10 0 16 -6q10 -9 12 -22q6 -53 6 -102q0 -80 -12 -144.5 t-31.5 -115.5t-43 -89t-46.5 -65q25 -12 48.5 -40.5t29.5 -84.5q6 -55 20.5 -113.5t32 -107.5t36 -81t34.5 -32q14 0 22.5 -10t8.5 -22q0 -10 -8.5 -21.5t-22.5 -11.5q-43 0 -77 50t-56.5 115.5t-36.5 131t-17 94.5q-4 29 -12 45t-18 25q-10 8 -25 10h-6q-12 -10 -19.5 -13 t-11.5 -8v-417q0 -10 -11 -21.5t-24 -11.5q-12 0 -21 11t-9 22v792q0 51 -11.5 88t-39.5 56q-16 12 -37 16t-37 4q-20 0 -39 -4h2q-14 -4 -25.5 2t-15.5 16z" />
<glyph unicode="l" horiz-adv-x="270" d="M-8 997q0 59 5 106.5t11 82.5q20 86 72 86q27 0 46 -30t31.5 -77t17.5 -106.5t5 -120.5q0 -166 -26.5 -289t-53.5 -196q14 -76 33 -123t35 -54q8 -1 20 15q10 10 23.5 12t24.5 -8h-3q13 -5 15 -19v-6q0 -10 -8 -18q-20 -25 -38 -33t-32 -8t-27 4q-27 10 -48 46t-38 89 l-4 -8l-2 -2v2q-6 -10 -20.5 -12t-30.5 6q-9 7 -9 17q0 8 5 18q0 2 4 10q4 10 13.5 29.5t21.5 50.5q-16 86 -24.5 179t-12.5 172t-5 131t-1 54zM57 997q0 -104 4.5 -205.5t14.5 -187.5q16 68 27.5 151t11.5 183q0 125 -11.5 185.5t-23.5 76.5q-6 -14 -14.5 -59.5 t-8.5 -143.5z" />
<glyph unicode="m" horiz-adv-x="659" d="M-6 246v669q0 33 33 33q10 0 21 -8t11 -25v-2q33 27 76 27q14 0 28.5 -6t24.5 -16q6 -8 10.5 -11.5t8.5 -17.5q16 23 40.5 37t59.5 14q14 0 26.5 -7t22.5 -13q4 -4 7.5 -8.5t7.5 -8.5q0 2 4 6q31 31 80 31q31 0 51 -20q31 -33 36 -114t5 -228v-43q0 -47 4 -93.5t10 -83 t16.5 -59.5t22.5 -23q14 0 22.5 -9t8.5 -21t-8.5 -21.5t-22.5 -9.5q-41 0 -64.5 39t-35 92t-14.5 106.5t-3 82.5v43q0 119 -3 197.5t-21 94.5l-4 4q-20 0 -35 -10q-8 -10 -11 -23.5t-6 -25.5q-2 -14 -2 -29q0 -8 -4 -16l2 4q2 -49 2 -114.5v-149.5q-2 -57 -3 -122.5 t-1 -141.5q0 -12 -9 -21.5t-23 -9.5q-16 0 -24.5 9t-8.5 22q0 41 1 77.5t1 71.5v115q2 45 2 86v76q0 82 -5 134t-20 66v-2l-2 2q-2 0 -2 2q-25 0 -40 -14t-22 -30.5t-10.5 -31t-3.5 -16.5l-4 -12q2 -29 3 -61.5t1 -71.5q0 -29 -1 -60.5t-1 -66.5q-2 -57 -3 -122.5t-1 -141.5 q0 -12 -9 -21.5t-23 -9.5t-23.5 9t-9.5 22q0 41 1 77.5t1 71.5v115q2 49 2 94v82q0 74 -4 122t-21 62l-4 4q-25 0 -39 -13t-22 -29.5t-11.5 -32t-3.5 -17.5v-536q0 -12 -11 -21.5t-21 -9.5q-16 0 -24.5 9t-8.5 22z" />
<glyph unicode="n" horiz-adv-x="325" d="M-8 248v670q0 33 28 32q18 0 27 -10q27 20 64 21q29 0 51 -23q33 -35 38 -118t5 -232v-45q0 -47 4 -94.5t11 -85t17.5 -61t22.5 -23.5q14 0 23.5 -9.5t9.5 -21.5t-9.5 -21.5t-23.5 -9.5q-43 0 -66.5 40t-36 93t-15.5 107.5t-3 85.5v45q0 123 -3 204.5t-21 100.5 q-2 2 -4 2q-23 0 -35 -12q-16 -16 -19.5 -43t-3.5 -39v-553q0 -12 -8 -21.5t-25 -9.5q-12 0 -20 9.5t-8 21.5z" />
<glyph unicode="o" d="M-4 451q2 14 2 34.5v46.5q0 86 2 161t13.5 131.5t32.5 90t60 33.5q47 0 72 -30v2q18 -18 27.5 -46t14.5 -58t5 -54.5v-36.5l-6 -340q-2 -86 -34.5 -131t-78.5 -45q-33 0 -59 27q-27 29 -41 83q-11 42 -11 99q0 16 1 33zM59 449q2 -68 13.5 -113t17.5 -55q4 -2 9 -5.5 t7 -3.5q16 0 34 28t18 87l2 338v33.5t-3 43t-9.5 41t-18.5 31.5q-6 10 -18 11q-18 0 -28.5 -41t-15 -97.5t-5.5 -116t-1 -98.5v-47t-2 -36z" />
<glyph unicode="p" horiz-adv-x="262" d="M-8 -471q0 66 1 147.5t3 169.5v46t1 56.5t1 56.5v46q0 76 1 147.5t2 133t1 109.5v77l-2 6v281q0 72 22.5 114t61.5 42q18 0 44 -19.5t48 -83.5q16 -49 22.5 -115.5t6.5 -150.5q0 -289 -99 -359q-10 -8 -21 -13t-22 -5v-81t-2 -83v-46t-1 -57.5t-1 -56v-45.5 q-2 -88 -3 -170t-1 -147q0 -14 -11 -23.5t-24 -9.5q-29 4 -28 33zM66 283q4 0 4 1t4 3q8 6 20 23.5t22.5 52t17.5 90t7 139.5q0 98 -9 157.5t-19 90.5v-2q-10 33 -17.5 45t-11.5 12q-2 0 -9 -20.5t-7 -69.5v-287v-95t-2 -140z" />
<glyph unicode="q" horiz-adv-x="247" d="M-6 592q0 84 6 150.5t23 115.5q23 63 48 83t46 20q39 0 60.5 -42t21.5 -114v-287v-77t1 -109.5t2 -133t3 -147.5v-205q2 -80 3 -169t1 -148q0 -10 -8 -21.5t-23 -11.5q-33 0 -33 33q0 27 -1 57.5t-1 63.5q-2 86 -3 197.5t-3 203.5v84t-2 80q-18 0 -43 18q-98 63 -98 359z M59 592q0 -84 7.5 -139.5t17.5 -90t21.5 -52t19.5 -23.5h-2l12 -6v20q-2 72 -3 128v35q0 34 1 60v281q0 49 -7 69.5t-9 20.5q-8 0 -31 -57q-10 -31 -18.5 -90.5t-8.5 -155.5z" />
<glyph unicode="r" horiz-adv-x="284" d="M-6 240v426q0 31 2 80t14.5 96t38 80.5t72.5 33.5q53 0 78 -53q10 -27 10 -63q0 -61 -29.5 -138t-89.5 -141l162 -305q4 -7 4 -15q0 -5 -2 -11q-4 -14 -16 -19q-8 -4 -17 -4q-16 0 -18 6l-142 264v-237q0 -16 -11 -24.5t-23 -8.5q-33 0 -33 33zM61 627q27 35 44.5 71.5 t26.5 70.5q9 33 10 61v7q0 24 -7 40q-4 10 -8 12t-6 2q-10 0 -20.5 -9.5t-19.5 -34t-14.5 -68.5t-5.5 -113v-39z" />
<glyph unicode="s" horiz-adv-x="311" d="M-2 799q8 78 42 123t85 45q59 0 90 -41q14 -23 22.5 -53.5t8.5 -59.5q0 -35 -5 -61.5t-8 -32.5q-10 -29 -43 -23q-10 4 -16 16.5t-2 26.5v-2q4 12 7 34t3 44q0 20 -2 38.5t-12 27.5q-12 20 -43 20q-27 0 -43 -32.5t-21 -73.5q-1 -12 -1 -23q0 -42 12 -80q14 -48 34 -53 q43 -8 77 -23.5t56.5 -43t32.5 -70.5q6 -26 7 -59q0 -22 -3 -48q-6 -72 -50 -123t-101 -51q-10 0 -27.5 7.5t-35.5 26.5t-30 58q-9 28 -8 69q0 17 1 36q2 10 10 19t24 9t25.5 -11t7.5 -25v2q-1 -18 -1 -34q0 -35 6 -58q9 -33 30 -35q27 0 54.5 33.5t31.5 80.5q2 22 2 40 q0 23 -3 41q-5 32 -20.5 50.5t-40 27.5t-57.5 15q-27 6 -46 28t-31.5 53.5t-16.5 69.5q-3 25 -3 50q0 13 1 25z" />
<glyph unicode="t" horiz-adv-x="120" d="M-8 240v1011q0 12 10 22.5t23 10.5q10 0 21 -10t11 -23v-227h162q10 0 21.5 -9t11.5 -24q0 -10 -11.5 -20t-21.5 -10h-162v-721q0 -14 -11 -23.5t-21 -9.5q-12 0 -22.5 9t-10.5 24z" />
<glyph unicode="u" horiz-adv-x="362" d="M-2 461q0 35 1 78t3 96v299q0 10 10.5 20.5t22.5 10.5q14 0 23.5 -10.5t9.5 -20.5q0 -88 -1 -163t-4 -138q-2 -41 -2 -76v-68q0 -86 5.5 -137t21.5 -67v2q4 -4 12 -4q29 0 46.5 16t27.5 37q12 23 19 55q0 2 1 3t1 3q-2 20 -2 47v56v63.5t2 71.5q2 59 3 139t1 160 q0 10 9 20.5t23 10.5t23.5 -10.5t9.5 -20.5q0 -88 -1 -163t-3 -138q-2 -47 -2 -87v-75q0 -78 5 -124t20 -62v2q4 -4 14 -4q14 0 23.5 -9.5t9.5 -21.5q0 -35 -33 -35q-41 0 -61 27v-2q-12 12 -23 34q-18 -23 -48 -41t-65 -18q-39 0 -61 27v-2q-25 25 -33 76t-8 143z" />
<glyph unicode="v" horiz-adv-x="417" d="M6 666q0 31 2 66.5t7 69.5t15.5 62.5t26.5 46.5q20 23 48 28t49 -15q23 -25 28.5 -74t5.5 -129v-174q0 -86 7.5 -160t31.5 -100v2q6 -6 13 -6q4 0 11 2t15 18q23 37 31 104.5t8 145.5q0 86 -8 169t-18 136q-20 29 -25 53q-4 23 2 35t14 17h-2q6 4 21.5 4t32.5 -21 q4 -6 9 -21.5t9 -37.5q15 -8 27 -8t23 -8.5t11 -22.5q0 -16 -11 -24.5t-23 -8.5q-6 0 -7.5 -1t-5.5 1q6 -51 10.5 -115.5t4.5 -132.5q0 -84 -9.5 -160.5t-33.5 -123.5h2q-18 -39 -43 -52.5t-45 -13.5q-39 0 -62 29v-2q-35 35 -44 117.5t-9 183.5v112v68t-2 65.5t-4 53 t-8 28.5q-2 0 -3.5 -1t-3.5 -1q-18 -29 -26 -88t-8 -118v-38t2 -34q0 -16 -9.5 -24.5t-21.5 -8.5q-33 0 -33 29q0 6 -1 27.5t-1 50.5z" />
<glyph unicode="w" horiz-adv-x="475" d="M0 483v83t2 96q2 55 2 129.5v142.5q0 14 10.5 23.5t24.5 9.5q12 0 21.5 -9.5t9.5 -23.5q0 -78 -1 -145.5t-3 -126.5q-2 -47 -2.5 -88.5t-0.5 -77.5q0 -86 5.5 -140.5t21.5 -72.5h8q20 0 34.5 12t24 27.5t14.5 32t7 26.5q0 10 2 10q-2 20 -2 42v44v75t2 85v143q0 37 1 75 t1 79q0 33 33 33t33 -33v-145.5t-2 -126.5q-2 -47 -2 -88.5v-77.5q0 -86 5 -140.5t19 -72.5h6q25 0 40.5 14t24.5 31.5t12 33t3 17.5v555q0 33 33 33t33 -33v-694q0 -33 -33 -33t-33 33v8q-16 -12 -35.5 -21.5t-44.5 -9.5q-12 0 -26.5 6t-24.5 17q-16 12 -24 30 q-16 -23 -41 -38t-60 -15t-55 23q-27 25 -35 85t-8 158z" />
<glyph unicode="x" horiz-adv-x="417" d="M-8 795q0 2 4 26.5t16.5 52t35 50t58.5 22.5q37 0 55.5 -57.5t47.5 -183.5q25 115 51.5 182t71.5 78h-2q9 3 18 3q29 0 58 -30q9 -9 9 -22q0 -16 -12 -27q-8 -10 -21 -9t-26 15h2q-2 0 -6 4q-2 2 -4 2q-12 -4 -25.5 -33.5t-24.5 -72.5t-22.5 -92.5t-19.5 -94.5 q-6 -35 -12 -53q0 -2 -1 -4t-1 -4q10 -47 23.5 -94t28.5 -85t32.5 -61.5t38.5 -23.5q16 0 24 -9.5t8 -21.5q0 -35 -32 -35q-53 0 -91 55.5t-65 133.5q-23 -84 -54.5 -136.5t-82.5 -52.5q-29 0 -29 35q0 12 8 21.5t21 9.5q14 0 28.5 23.5t27.5 60t24.5 84t21.5 94.5 q-6 33 -13 68.5t-14 68.5q-4 12 -5 23.5t-5 23.5q-10 47 -19 90t-20 60q-10 -4 -17 -15.5t-12.5 -26t-8.5 -27.5t-5 -22q-4 -12 -13 -20t-26 -6q-10 4 -17 12t-7 21z" />
<glyph unicode="y" d="M-4 -258q0 59 8 132t27.5 137.5t52.5 111.5t82 57v35q-18 2 -43 18q-98 68 -98 359v268q0 14 11 22.5t21 8.5q33 0 33 -31v-268q0 -84 7 -139.5t18.5 -90t23 -52t21.5 -23.5l-2 2q8 -4 6 -2t4 0v231q0 6 2 10q-2 4 -2 11v395q0 33 33 33q31 0 30 -33v-395q0 -8 -2 -15 q0 -2 1 -3t1 -3q-2 -76 -2 -139.5v-122.5l-2 4q4 -8 0 -22l2 4q0 -39 -1 -72t-1 -61v-81t-2 -57q-2 -16 -2 -33.5t-2 -33.5q-4 -72 -8 -139.5t-14 -114.5q-2 -16 -7.5 -42t-17.5 -49.5t-30.5 -41t-47.5 -17.5q-33 2 -52 30t-30.5 66.5t-14.5 78.5t-3 67zM59 -258 q2 -90 14.5 -132t24.5 -44q12 0 20.5 31.5t14.5 64.5q10 47 15.5 109.5t9.5 134.5q2 16 2 33.5t2 33.5v7v34.5t2 46.5q0 8 1 21.5t1 28.5q-25 -12 -45.5 -49t-34.5 -87.5t-20.5 -111t-6.5 -121.5z" />
<glyph unicode="z" horiz-adv-x="382" d="M-6 913q8 20 37 21q4 0 20.5 -2t38.5 -2q31 0 67 6t62 25h-2q5 5 15 5h4q12 -1 24 -8q4 -4 7 -9t3 -15v-416q0 -20 9.5 -34.5t21.5 -28.5q16 -16 27.5 -40t11.5 -59l-2 -112v-205v-62l-2 -6q-4 -98 -9 -180t-14 -141q-2 -16 -8 -41t-18.5 -49.5t-31.5 -42t-50 -17.5 q-33 2 -52.5 30t-29.5 66.5t-13.5 78.5t-3.5 67q0 59 7.5 132t28 137.5t52 111.5t80.5 57v66l2 112q0 16 -6 25.5t-16 22.5q2 -2 4 -3q-18 23 -35.5 50.5t-17.5 64.5v363q-35 -10 -72 -13.5t-63 -1.5q10 -43 17 -108.5t12 -134t7.5 -130t2.5 -96.5q0 -14 -10.5 -23t-20.5 -9 q-14 0 -24.5 9t-10.5 21q-2 80 -6 162t-9 150.5t-12.5 114.5t-15.5 55v-3q-9 9 -9 21q0 9 5 18h-2zM170 -258q0 -78 13.5 -122t23.5 -54q16 4 24.5 34.5t14.5 61.5q10 49 14 123t8 152q0 8 1 18t1 18v9q2 10 2 28.5v40.5q0 16 1 26.5t1 33.5q-25 -16 -44 -53.5t-32.5 -88.5 t-20.5 -109.5t-7 -117.5z" />
<glyph unicode="{" horiz-adv-x="319" d="M2 600q0 33 31 33q10 0 19 5t16 9q25 27 24 117q0 68 -18 176l-2 10v-2q-6 37 -6 66q0 66 28 94v-2q12 18 28.5 24.5t39.5 6.5q39 0 59.5 -26t29.5 -58.5t11 -61t2 -35.5q0 -14 -8 -24t-25 -10q-12 0 -21 10t-9 24q0 12 -2 32t-7.5 38t-12.5 31.5t-17 13.5q-8 0 -12.5 -2 t-8.5 -4h2q-8 -8 -12 -30.5t4 -73.5l2 -11q8 -41 14.5 -89t6.5 -95q0 -51 -9.5 -93t-31.5 -71l-4 -4l2 -2q23 -29 33 -72t10 -90t-6.5 -95t-14.5 -89q0 -4 -1 -6t-1 -6q-8 -53 -4 -74t12 -29t19 -8q10 0 17 13.5t12.5 31.5t7.5 38.5t2 33.5q0 10 9 21t21 11q16 0 24.5 -11 t8.5 -21q0 -6 -2 -36t-11 -62.5t-29.5 -59.5t-59.5 -27q-43 0 -68 33v-2q-29 29 -28 92q0 33 6 68q0 4 1 5t1 3q18 106 18 176q0 84 -24 119q-16 12 -35 12q-31 0 -31 35z" />
<glyph unicode="}" horiz-adv-x="319" d="M-8 244q0 10 9 21t24 11q12 0 23 -10t11 -20q0 -14 2 -35t6.5 -39t11.5 -31.5t17 -13.5q8 0 17 8q6 8 11 28.5t-5 74.5l-2 12q-6 41 -12.5 88t-6.5 94q0 49 10.5 92t32.5 70q4 4 2 3t2 3q-2 2 -4 2q-23 29 -33 71t-10 95q0 45 6.5 93t12.5 89q0 4 1 6t1 5q10 51 5 73.5 t-13 32.5h2q0 4 -17 4q-10 0 -17 -13.5t-11.5 -31.5t-6.5 -37.5t-2 -32.5q0 -14 -11 -24t-23 -10q-14 0 -23.5 10t-9.5 24q0 6 2 35t12 61.5t30.5 58.5t59.5 26q18 0 36 -6.5t32 -24.5q27 -33 26 -96v-28.5t-4 -33.5q0 -2 -1 -4t-1 -4q-18 -109 -18 -178q0 -84 27 -117v2 q14 -14 28 -14q33 0 33 -33q0 -35 -33 -35q-16 0 -28 -12v2q-27 -37 -27 -119q0 -70 18 -180l2 -6q4 -16 4 -33.5v-30.5q0 -61 -26 -94q-14 -18 -31.5 -25.5t-36.5 -7.5q-39 0 -59.5 27t-30.5 59.5t-12 62.5t-2 36z" />
<glyph unicode="&#xa1;" horiz-adv-x="112" d="M-25 1249q0 23 15.5 37t38.5 14t38 -14t15 -37t-15 -38t-38 -15t-38.5 15.5t-15.5 37.5zM-2 250v897q0 31 31 31q33 0 32 -31v-897q0 -33 -32 -33q-31 0 -31 33z" />
<glyph unicode="&#xa8;" horiz-adv-x="1705" d="M-23 1071q0 23 15.5 37t38.5 14t38 -14t15 -37t-15 -38t-38 -15t-38.5 15.5t-15.5 37.5zM158 1071q0 23 16 37t39 14q20 0 35.5 -14t15.5 -37t-15.5 -38t-35.5 -15q-23 0 -39 15.5t-16 37.5z" />
<glyph unicode="&#xa9;" horiz-adv-x="1112" d="M12 831q0 106 41 201.5t110.5 165.5t164 111t200.5 41t200.5 -41t165.5 -111t112 -165t41 -202q0 -106 -41 -200t-112 -164t-165 -111t-201 -41q-106 0 -200.5 41t-164 111t-110.5 164t-41 200zM145.5 571.5q6.5 -53.5 55.5 -84.5q37 -23 47 -1t6 63t-13.5 88t-9.5 74 q-2 55 17.5 121.5t39 128t32 108.5t-2.5 66q-23 25 -46 22.5t-43.5 -22t-36 -50t-17.5 -62.5t10.5 -58.5t46.5 -38.5q-10 -53 -35.5 -117t-41 -124t-9 -113.5zM207 992.5q-4 23.5 7 51t28.5 46t29.5 2.5q8 -12 10.5 -32t-3 -38t-15.5 -32.5t-22 -16.5q-31 -4 -35 19.5z M315 688l80 254q14 -29 36 -81t42 -111q8 -23 18.5 -51.5t22.5 -51t27.5 -31.5t33.5 7q10 8 8.5 21t-10 28.5t-19.5 31t-19 27.5q-47 66 -74 129.5t-27 122.5q31 18 76 44t82 52.5t56.5 52t0.5 48.5q-14 14 -32.5 4t-38 -32t-39 -47.5t-35.5 -39.5q-20 -18 -45 -29.5 t-47 -21.5q6 18 17 47t17.5 58.5t4.5 53t-21 33.5q-31 14 -44 -11.5t-19.5 -70.5t-6.5 -99t-2 -95q-4 -74 -20 -125t-23 -117zM577.5 750.5q6.5 -27.5 43.5 -13.5q18 8 21 38t-1 70t-8 82t2 72q-10 -31 -27.5 -81t-27 -95t-3 -72.5zM623 1036.5q2 -18.5 18 -16.5t19.5 11 t-1 18.5t-14.5 13.5t-18 -4q-6 -4 -4 -22.5zM700 688q10 39 20.5 88t26 99.5t37 99.5t56.5 90q8 12 16 27.5t11 33t1 33t-14 25.5q-10 8 -22.5 12t-28.5 -4q-49 -23 -71.5 -100.5t-26.5 -206.5q0 -18 -2.5 -59.5t-2.5 -137.5zM776 918q-12 -27 9.5 -42.5t50 -27.5t53 -25.5 t18.5 -38.5q-41 27 -70.5 10.5t-42 -47t-5 -64.5t44.5 -42q43 -8 71.5 17.5t46.5 66.5q4 0 11.5 -6t15.5 -11.5t13 -6.5t7 10q2 16 -15 25t-28 20q-2 37 -24.5 79t-52 70.5t-59 35.5t-44.5 -23zM819 735q4 18 19.5 24.5t33 3.5t30.5 -15.5t13 -28.5q0 -20 -20.5 -30.5 t-40.5 -10.5q-27 2 -33 21.5t-2 35.5z" />
<glyph unicode="&#xb4;" horiz-adv-x="294" d="M4 1028q-14 29 14 47q8 6 34 23.5t56.5 44t59.5 59.5t45 68q6 10 18.5 15t24.5 1q14 -4 18.5 -17.5t-0.5 -25.5q-18 -45 -54 -85t-71.5 -70.5t-63.5 -48t-30 -19.5q-12 -6 -16 -7t-8 -1q-8 0 -15.5 3t-11.5 13z" />
<glyph unicode="&#xbf;" horiz-adv-x="333" d="M-4 1249q0 23 14.5 37t36.5 14q23 0 38 -14t15 -37t-15 -38t-38 -15t-37 15.5t-14 37.5zM16 836q0 45 1 92t1 94v125q0 31 31 31q33 0 33 -31v-125q0 -41 -1 -88t-1 -98v-105q2 43 10 85t31 65q23 25 55.5 23.5t54.5 -23.5q35 -37 44.5 -110t7.5 -159v-16 q0 -41 -2 -101.5t-15 -119.5q-14 -76 -48 -117t-85 -41q-8 0 -20.5 4t-22.5 15q-25 25 -39 80t-21 133.5t-10.5 177t-3.5 209.5zM82 635q4 -127 16.5 -226.5t36.5 -125.5v-2q23 2 41.5 30.5t28.5 77.5q10 53 11 110.5t1 92.5l2 22v51t-3 67t-10 62.5t-20 43.5v-2q-6 6 -12 6 q-2 0 -6 -4v2q-12 -16 -18.5 -51t-6.5 -78q0 -29 2 -58.5t7 -54.5q0 -14 -9.5 -24.5t-21.5 -12.5q-31 0 -35 27v2q0 4 -1 16t-3 29z" />
<glyph unicode="&#xc0;" horiz-adv-x="589" d="M4 786.5q-8 32.5 2 63.5q33 78 115 88q16 2 54 1t75 -3h10v35q0 31 3 89t15.5 114.5t36 99.5t64.5 43q27 0 47 -20.5t34.5 -66.5t24 -122t13.5 -188q10 -2 17 -1t13 1t10.5 -1t6.5 -1q16 0 24.5 -11.5t8.5 -25.5q-2 -10 -12.5 -19.5t-24.5 -7.5q-12 0 -21.5 -1t-19.5 1 q4 -125 5 -289t1 -381q0 -16 -10.5 -25t-20.5 -9q-33 0 -33 34q0 178 -1 351.5t-7 326.5q-29 4 -55.5 4t-54.5 2v-602q0 -33 -31 -33q-33 0 -33 33v606q-45 4 -80 4.5t-51 -4.5q-20 -4 -36.5 -15t-20.5 -30q-10 -27 12 -49q20 -20 -2 -49l-9 -6t-12 -2q-16 0 -24 8 q-25 25 -33 57.5zM233 1475h2q-6 12 -1 25.5t17 17.5l-2 -2q12 8 26.5 2t18.5 -19q14 -33 41 -63.5t56.5 -56t55.5 -44t38 -26.5q4 -4 6 -4l2 -2h-2q29 -14 10 -49q-8 -10 -26 -11q-10 0 -19 4q-8 4 -37.5 23.5t-65.5 50.5t-70 71t-50 83zM313 934l11 -8v8h-11zM324 934 q16 -2 31.5 -2t31.5 -2q14 -2 23.5 -3t21.5 -1q-8 143 -20.5 233t-32.5 90q-12 0 -21.5 -24.5t-17.5 -64.5t-12 -90t-4 -99v-37z" />
<glyph unicode="&#xc1;" horiz-adv-x="589" d="M4 786.5q-8 32.5 2 63.5q33 78 115 88q16 2 54 1t75 -3h10v35q0 31 3 89t15.5 114.5t36 99.5t64.5 43q27 0 47 -20.5t34.5 -66.5t24 -122t13.5 -188q10 -2 17 -1t13 1t10.5 -1t6.5 -1q16 0 24.5 -11.5t8.5 -25.5q-2 -10 -12.5 -19.5t-24.5 -7.5q-12 0 -21.5 -1t-19.5 1 q4 -125 5 -289t1 -381q0 -16 -10.5 -25t-20.5 -9q-33 0 -33 34q0 178 -1 351.5t-7 326.5q-29 4 -55.5 4t-54.5 2v-602q0 -33 -31 -33q-33 0 -33 33v606q-45 4 -80 4.5t-51 -4.5q-20 -4 -36.5 -15t-20.5 -30q-10 -27 12 -49q20 -20 -2 -49l-9 -6t-12 -2q-16 0 -24 8 q-25 25 -33 57.5zM248 1261q-14 29 14 47q8 6 34 23.5t56.5 44t59.5 59.5t45 68q6 10 18.5 15t24.5 1q14 -4 18.5 -17.5t-0.5 -25.5q-18 -45 -54 -85t-71.5 -70.5t-63.5 -48t-30 -19.5q-12 -6 -16 -7t-8 -1q-8 0 -15.5 3t-11.5 13zM313 934l11 -8v8h-11zM324 934 q16 -2 31.5 -2t31.5 -2q14 -2 23.5 -3t21.5 -1q-8 143 -20.5 233t-32.5 90q-12 0 -21.5 -24.5t-17.5 -64.5t-12 -90t-4 -99v-37z" />
<glyph unicode="&#xc2;" horiz-adv-x="589" d="M4 786.5q-8 32.5 2 63.5q33 78 115 88q16 2 54 1t75 -3h10v35q0 31 3 89t15.5 114.5t36 99.5t64.5 43q27 0 47 -20.5t34.5 -66.5t24 -122t13.5 -188q10 -2 17 -1t13 1t10.5 -1t6.5 -1q16 0 24.5 -11.5t8.5 -25.5q-2 -10 -12.5 -19.5t-24.5 -7.5q-12 0 -21.5 -1t-19.5 1 q4 -125 5 -289t1 -381q0 -16 -10.5 -25t-20.5 -9q-33 0 -33 34q0 178 -1 351.5t-7 326.5q-29 4 -55.5 4t-54.5 2v-602q0 -33 -31 -33q-33 0 -33 33v606q-45 4 -80 4.5t-51 -4.5q-20 -4 -36.5 -15t-20.5 -30q-10 -27 12 -49q20 -20 -2 -49l-9 -6t-12 -2q-16 0 -24 8 q-25 25 -33 57.5zM174 1300q-10 29 16 49l18 10q19 9 43.5 22.5t51.5 31.5t45 37q16 16 41 6q14 -10 38.5 -26.5t51.5 -33t51.5 -30t38.5 -17.5q12 -4 17.5 -17t-0.5 -28l2 2q-4 -10 -13.5 -17t-19.5 -7h-12q-12 6 -34 18.5t-46.5 26.5t-48 29.5t-39.5 25.5 q-35 -29 -78 -53.5t-64 -36.5q-4 -2 -5 -3t-5 -3t-6 -4q-25 -6 -43 18zM313 934l11 -8v8h-11zM324 934q16 -2 31.5 -2t31.5 -2q14 -2 23.5 -3t21.5 -1q-8 143 -20.5 233t-32.5 90q-12 0 -21.5 -24.5t-17.5 -64.5t-12 -90t-4 -99v-37z" />
<glyph unicode="&#xc4;" horiz-adv-x="589" d="M4 786.5q-8 32.5 2 63.5q33 78 115 88q16 2 54 1t75 -3h10v35q0 31 3 89t15.5 114.5t36 99.5t64.5 43q27 0 47 -20.5t34.5 -66.5t24 -122t13.5 -188q10 -2 17 -1t13 1t10.5 -1t6.5 -1q16 0 24.5 -11.5t8.5 -25.5q-2 -10 -12.5 -19.5t-24.5 -7.5q-12 0 -21.5 -1t-19.5 1 q4 -125 5 -289t1 -381q0 -16 -10.5 -25t-20.5 -9q-33 0 -33 34q0 178 -1 351.5t-7 326.5q-29 4 -55.5 4t-54.5 2v-602q0 -33 -31 -33q-33 0 -33 33v606q-45 4 -80 4.5t-51 -4.5q-20 -4 -36.5 -15t-20.5 -30q-10 -27 12 -49q20 -20 -2 -49l-9 -6t-12 -2q-16 0 -24 8 q-25 25 -33 57.5zM239 1356q0 23 15.5 37t38.5 14t38 -14t15 -37t-15 -38t-38 -15t-38.5 15.5t-15.5 37.5zM313 934l11 -8v8h-11zM324 934q16 -2 31.5 -2t31.5 -2q14 -2 23.5 -3t21.5 -1q-8 143 -20.5 233t-32.5 90q-12 0 -21.5 -24.5t-17.5 -64.5t-12 -90t-4 -99v-37z M420 1356q0 23 16 37t39 14q20 0 35.5 -14t15.5 -37t-15.5 -38t-35.5 -15q-23 0 -39 15.5t-16 37.5z" />
<glyph unicode="&#xd2;" horiz-adv-x="411" d="M18 842q0 68 3.5 132t12.5 120.5t26.5 100.5t43.5 73q39 35 86 35q23 0 46.5 -10.5t42.5 -28.5q47 -47 64 -136.5t22 -189.5q6 4 11 9t13 11h-2l12 13h2q25 23 48 0h-3q12 -10 12.5 -23.5t-9.5 -23.5q-18 -18 -39 -32.5t-45 -31.5v-168q0 -45 -1.5 -108.5t-9.5 -128 t-25.5 -123t-49.5 -90.5q-16 -16 -39 -23.5t-47 -7.5q-55 0 -89 50t-52.5 124t-25 159t-6.5 152v54q0 23 -1 46t-1 46zM49 1475h2q-6 12 -1 25.5t17 17.5l-2 -2q12 8 26.5 2t18.5 -19q14 -33 41 -63.5t56.5 -56t55.5 -44t38 -26.5q4 -4 6 -4l2 -2h-2q29 -14 10 -49 q-8 -10 -26 -11q-10 0 -19 4q-8 4 -37.5 23.5t-65.5 50.5t-70 71t-50 83zM84 752q0 -10 1 -18.5t1 -16.5v-21q0 -78 6 -154.5t19.5 -136t33 -96.5t48.5 -37q20 0 36 19q27 25 41.5 77t20.5 111.5t7 116.5t1 94v70q2 16 2 33.5v37.5q-10 -2 -20.5 -2h-20.5q-27 0 -50.5 8.5 t-39.5 18.5q-23 16 -45.5 39t-38.5 45q-2 -43 -2 -81v-73v-34zM104 1102q-4 -14 1.5 -40t17.5 -54.5t32.5 -55t47.5 -41.5h-2q23 -12 48 -12t52 6q-2 45 -6 92t-11.5 89t-20.5 77t-34 56q-23 18 -39 18q-10 0 -20 -5t-18 -11h2q-16 -16 -28.5 -47t-21.5 -72z" />
<glyph unicode="&#xd3;" horiz-adv-x="411" d="M18 842q0 68 3.5 132t12.5 120.5t26.5 100.5t43.5 73q39 35 86 35q23 0 46.5 -10.5t42.5 -28.5q47 -47 64 -136.5t22 -189.5q6 4 11 9t13 11h-2l12 13h2q25 23 48 0h-3q12 -10 12.5 -23.5t-9.5 -23.5q-18 -18 -39 -32.5t-45 -31.5v-168q0 -45 -1.5 -108.5t-9.5 -128 t-25.5 -123t-49.5 -90.5q-16 -16 -39 -23.5t-47 -7.5q-55 0 -89 50t-52.5 124t-25 159t-6.5 152v54q0 23 -1 46t-1 46zM61 1266q-14 29 14 47q8 6 34 23.5t56.5 44t59.5 59.5t45 68q6 10 18.5 15t24.5 1q14 -4 18.5 -17.5t-0.5 -25.5q-18 -45 -54 -85t-71.5 -70.5t-63.5 -48 t-30 -19.5q-12 -6 -16 -7t-8 -1q-8 0 -15.5 3t-11.5 13zM84 752q0 -10 1 -18.5t1 -16.5v-21q0 -78 6 -154.5t19.5 -136t33 -96.5t48.5 -37q20 0 36 19q27 25 41.5 77t20.5 111.5t7 116.5t1 94v70q2 16 2 33.5v37.5q-10 -2 -20.5 -2h-20.5q-27 0 -50.5 8.5t-39.5 18.5 q-23 16 -45.5 39t-38.5 45q-2 -43 -2 -81v-73v-34zM104 1102q-4 -14 1.5 -40t17.5 -54.5t32.5 -55t47.5 -41.5h-2q23 -12 48 -12t52 6q-2 45 -6 92t-11.5 89t-20.5 77t-34 56q-23 18 -39 18q-10 0 -20 -5t-18 -11h2q-16 -16 -28.5 -47t-21.5 -72z" />
<glyph unicode="&#xd4;" horiz-adv-x="411" d="M-12 1292q-10 29 16 49l18 10q19 9 43.5 22.5t51.5 31.5t45 37q16 16 41 6q14 -10 38.5 -26.5t51.5 -33t51.5 -30t38.5 -17.5q12 -4 17.5 -17t-0.5 -28l2 2q-4 -10 -13.5 -17t-19.5 -7h-12q-12 6 -34 18.5t-46.5 26.5t-48 29.5t-39.5 25.5q-35 -29 -78 -53.5t-64 -36.5 q-4 -2 -5 -3t-5 -3t-6 -4q-25 -6 -43 18zM18 842q0 68 3.5 132t12.5 120.5t26.5 100.5t43.5 73q39 35 86 35q23 0 46.5 -10.5t42.5 -28.5q47 -47 64 -136.5t22 -189.5q6 4 11 9t13 11h-2l12 13h2q25 23 48 0h-3q12 -10 12.5 -23.5t-9.5 -23.5q-18 -18 -39 -32.5t-45 -31.5 v-168q0 -45 -1.5 -108.5t-9.5 -128t-25.5 -123t-49.5 -90.5q-16 -16 -39 -23.5t-47 -7.5q-55 0 -89 50t-52.5 124t-25 159t-6.5 152v54q0 23 -1 46t-1 46zM84 752q0 -10 1 -18.5t1 -16.5v-21q0 -78 6 -154.5t19.5 -136t33 -96.5t48.5 -37q20 0 36 19q27 25 41.5 77 t20.5 111.5t7 116.5t1 94v70q2 16 2 33.5v37.5q-10 -2 -20.5 -2h-20.5q-27 0 -50.5 8.5t-39.5 18.5q-23 16 -45.5 39t-38.5 45q-2 -43 -2 -81v-73v-34zM104 1102q-4 -14 1.5 -40t17.5 -54.5t32.5 -55t47.5 -41.5h-2q23 -12 48 -12t52 6q-2 45 -6 92t-11.5 89t-20.5 77 t-34 56q-23 18 -39 18q-10 0 -20 -5t-18 -11h2q-16 -16 -28.5 -47t-21.5 -72z" />
<glyph unicode="&#xd6;" horiz-adv-x="411" d="M18 842q0 68 3.5 132t12.5 120.5t26.5 100.5t43.5 73q39 35 86 35q23 0 46.5 -10.5t42.5 -28.5q47 -47 64 -136.5t22 -189.5q6 4 11 9t13 11h-2l12 13h2q25 23 48 0h-3q12 -10 12.5 -23.5t-9.5 -23.5q-18 -18 -39 -32.5t-45 -31.5v-168q0 -45 -1.5 -108.5t-9.5 -128 t-25.5 -123t-49.5 -90.5q-16 -16 -39 -23.5t-47 -7.5q-55 0 -89 50t-52.5 124t-25 159t-6.5 152v54q0 23 -1 46t-1 46zM47 1341q0 23 15.5 37t38.5 14t38 -14t15 -37t-15 -38t-38 -15t-38.5 15.5t-15.5 37.5zM84 752q0 -10 1 -18.5t1 -16.5v-21q0 -78 6 -154.5t19.5 -136 t33 -96.5t48.5 -37q20 0 36 19q27 25 41.5 77t20.5 111.5t7 116.5t1 94v70q2 16 2 33.5v37.5q-10 -2 -20.5 -2h-20.5q-27 0 -50.5 8.5t-39.5 18.5q-23 16 -45.5 39t-38.5 45q-2 -43 -2 -81v-73v-34zM104 1102q-4 -14 1.5 -40t17.5 -54.5t32.5 -55t47.5 -41.5h-2 q23 -12 48 -12t52 6q-2 45 -6 92t-11.5 89t-20.5 77t-34 56q-23 18 -39 18q-10 0 -20 -5t-18 -11h2q-16 -16 -28.5 -47t-21.5 -72zM228 1341q0 23 16 37t39 14q20 0 35.5 -14t15.5 -37t-15.5 -38t-35.5 -15q-23 0 -39 15.5t-16 37.5z" />
<glyph unicode="&#xd9;" horiz-adv-x="440" d="M-2 1067q0 59 10 122.5t37 94.5q18 23 48 24t52 -22q35 -37 44.5 -127t9.5 -219v-84q0 -10 -1 -21.5t-1 -21.5v-68q0 -51 1 -118.5t6 -133t16 -120t32 -76.5q8 -4 16 -4q12 16 20.5 54t13.5 86t6 103.5t1 108.5q0 35 -1 67.5t-1 59.5v72v29.5t-2 31.5v74q0 39 2 79 t8.5 74.5t17.5 65.5t32 51q37 39 94 39q31 0 30 -33q0 -33 -30 -32q-10 0 -23.5 -5.5t-23.5 -11.5q-29 -33 -36 -95t-7 -128v-76q2 -16 2 -33.5v-29.5v-70q2 -35 2 -78v-73q0 -135 -12.5 -238.5t-47.5 -140.5v2q-8 -10 -21 -16.5t-24 -6.5q-16 0 -33.5 9.5t-29.5 19.5 q-23 27 -37 78t-22.5 116.5t-10.5 142.5t-2 156v31v39t2 41v94q0 47 -1 93.5t-4 85t-9 65.5t-17 37q-10 12 -12 10q-16 -16 -22.5 -65.5t-6.5 -104.5q0 -35 2.5 -68.5t4.5 -62.5q0 -31 -27 -35q-33 0 -37 27q-2 12 -5 50t-3 85zM96 1473h2q-6 12 -1 25.5t17 17.5l-2 -2 q12 8 26.5 2t18.5 -19q14 -33 41 -63.5t56.5 -56t55.5 -44t38 -26.5q4 -4 6 -4l2 -2h-2q29 -14 10 -49q-8 -10 -26 -11q-10 0 -19 4q-8 4 -37.5 23.5t-65.5 50.5t-70 71t-50 83z" />
<glyph unicode="&#xda;" horiz-adv-x="440" d="M-2 1067q0 59 10 122.5t37 94.5q18 23 48 24t52 -22q35 -37 44.5 -127t9.5 -219v-84q0 -10 -1 -21.5t-1 -21.5v-68q0 -51 1 -118.5t6 -133t16 -120t32 -76.5q8 -4 16 -4q12 16 20.5 54t13.5 86t6 103.5t1 108.5q0 35 -1 67.5t-1 59.5v72v29.5t-2 31.5v74q0 39 2 79 t8.5 74.5t17.5 65.5t32 51q37 39 94 39q31 0 30 -33q0 -33 -30 -32q-10 0 -23.5 -5.5t-23.5 -11.5q-29 -33 -36 -95t-7 -128v-76q2 -16 2 -33.5v-29.5v-70q2 -35 2 -78v-73q0 -135 -12.5 -238.5t-47.5 -140.5v2q-8 -10 -21 -16.5t-24 -6.5q-16 0 -33.5 9.5t-29.5 19.5 q-23 27 -37 78t-22.5 116.5t-10.5 142.5t-2 156v31v39t2 41v94q0 47 -1 93.5t-4 85t-9 65.5t-17 37q-10 12 -12 10q-16 -16 -22.5 -65.5t-6.5 -104.5q0 -35 2.5 -68.5t4.5 -62.5q0 -31 -27 -35q-33 0 -37 27q-2 12 -5 50t-3 85zM158 1264q-14 29 14 47q8 6 34 23.5t56.5 44 t59.5 59.5t45 68q6 10 18.5 15t24.5 1q14 -4 18.5 -17.5t-0.5 -25.5q-18 -45 -54 -85t-71.5 -70.5t-63.5 -48t-30 -19.5q-12 -6 -16 -7t-8 -1q-8 0 -15.5 3t-11.5 13z" />
<glyph unicode="&#xdb;" horiz-adv-x="440" d="M-2 1067q0 59 10 122.5t37 94.5q18 23 48 24t52 -22q35 -37 44.5 -127t9.5 -219v-84q0 -10 -1 -21.5t-1 -21.5v-68q0 -51 1 -118.5t6 -133t16 -120t32 -76.5q8 -4 16 -4q12 16 20.5 54t13.5 86t6 103.5t1 108.5q0 35 -1 67.5t-1 59.5v72v29.5t-2 31.5v74q0 39 2 79 t8.5 74.5t17.5 65.5t32 51q37 39 94 39q31 0 30 -33q0 -33 -30 -32q-10 0 -23.5 -5.5t-23.5 -11.5q-29 -33 -36 -95t-7 -128v-76q2 -16 2 -33.5v-29.5v-70q2 -35 2 -78v-73q0 -135 -12.5 -238.5t-47.5 -140.5v2q-8 -10 -21 -16.5t-24 -6.5q-16 0 -33.5 9.5t-29.5 19.5 q-23 27 -37 78t-22.5 116.5t-10.5 142.5t-2 156v31v39t2 41v94q0 47 -1 93.5t-4 85t-9 65.5t-17 37q-10 12 -12 10q-16 -16 -22.5 -65.5t-6.5 -104.5q0 -35 2.5 -68.5t4.5 -62.5q0 -31 -27 -35q-33 0 -37 27q-2 12 -5 50t-3 85zM49 1331q-10 29 16 49l18 10q19 9 43.5 22.5 t51.5 31.5t45 37q16 16 41 6q14 -10 38.5 -26.5t51.5 -33t51.5 -30t38.5 -17.5q12 -4 17.5 -17t-0.5 -28l2 2q-4 -10 -13.5 -17t-19.5 -7h-12q-12 6 -34 18.5t-46.5 26.5t-48 29.5t-39.5 25.5q-35 -29 -78 -53.5t-64 -36.5q-4 -2 -5 -3t-5 -3t-6 -4q-25 -6 -43 18z" />
<glyph unicode="&#xdc;" horiz-adv-x="440" d="M-2 1067q0 59 10 122.5t37 94.5q18 23 48 24t52 -22q35 -37 44.5 -127t9.5 -219v-84q0 -10 -1 -21.5t-1 -21.5v-68q0 -51 1 -118.5t6 -133t16 -120t32 -76.5q8 -4 16 -4q12 16 20.5 54t13.5 86t6 103.5t1 108.5q0 35 -1 67.5t-1 59.5v72v29.5t-2 31.5v74q0 39 2 79 t8.5 74.5t17.5 65.5t32 51q37 39 94 39q31 0 30 -33q0 -33 -30 -32q-10 0 -23.5 -5.5t-23.5 -11.5q-29 -33 -36 -95t-7 -128v-76q2 -16 2 -33.5v-29.5v-70q2 -35 2 -78v-73q0 -135 -12.5 -238.5t-47.5 -140.5v2q-8 -10 -21 -16.5t-24 -6.5q-16 0 -33.5 9.5t-29.5 19.5 q-23 27 -37 78t-22.5 116.5t-10.5 142.5t-2 156v31v39t2 41v94q0 47 -1 93.5t-4 85t-9 65.5t-17 37q-10 12 -12 10q-16 -16 -22.5 -65.5t-6.5 -104.5q0 -35 2.5 -68.5t4.5 -62.5q0 -31 -27 -35q-33 0 -37 27q-2 12 -5 50t-3 85zM124 1329q0 23 15.5 37t38.5 14t38 -14 t15 -37t-15 -38t-38 -15t-38.5 15.5t-15.5 37.5zM305 1329q0 23 16 37t39 14q20 0 35.5 -14t15.5 -37t-15.5 -38t-35.5 -15q-23 0 -39 15.5t-16 37.5z" />
<glyph unicode="&#xdd;" horiz-adv-x="325" d="M6 464v54v766q0 10 9.5 21.5t21.5 11.5q14 0 23.5 -11.5t9.5 -21.5v-766q-2 -18 -1 -51t6 -67.5t17 -64.5t33 -42h-2q29 -14 90 24v37q0 78 1 154t2 143.5t1 122.5v96v29q0 49 1 105.5t8 108.5t22.5 97t44.5 74h-2q35 35 82 35q35 0 35 -33t-35 -33q-18 0 -37 -18 q-20 -20 -30.5 -59t-15.5 -86.5t-5 -96.5v-92v-31v-115.5t-1 -151.5t-2 -176t-3 -189q-2 -92 -4.5 -187.5t-3.5 -179.5t-3 -152.5t-4 -109.5q-4 -57 -21.5 -80t-33.5 -31v2q-8 -2 -19 -2q-12 0 -28.5 8.5t-28.5 22.5q-25 31 -43 87t-18 136q0 92 29.5 215t107.5 273 q-33 -16 -66 -17q-29 0 -51 15q-35 20 -52 60t-25.5 84t-8.5 82zM88 1272q-14 29 14 47q8 6 34 23.5t56.5 44t59.5 59.5t45 68q6 10 18.5 15t24.5 1q14 -4 18.5 -17.5t-0.5 -25.5q-18 -45 -54 -85t-71.5 -70.5t-63.5 -48t-30 -19.5q-12 -6 -16 -7t-8 -1q-8 0 -15.5 3 t-11.5 13zM139 -250q0 -72 13.5 -117t29.5 -63q2 -4 4 -6q0 -2 2 -2q4 4 6.5 14t4.5 37q4 72 6 189.5t6 283.5q-37 -98 -54.5 -186t-17.5 -150z" />
<glyph unicode="&#xe0;" horiz-adv-x="301" d="M-21 1168h2q-6 12 -1 25.5t17 17.5l-2 -2q12 8 26.5 2t18.5 -19q14 -33 41 -63.5t56.5 -56t55.5 -44t38 -26.5q4 -4 6 -4l2 -2h-2q29 -14 10 -49q-8 -10 -26 -11q-10 0 -19 4q-8 4 -37.5 23.5t-65.5 50.5t-70 71t-50 83zM-4 444v84q0 86 3 164t14.5 135.5t34 92 t63.5 34.5q45 0 73 -32v2q18 -20 28.5 -50t14.5 -60t3 -54.5t-1 -34.5v-338q0 -10 -1 -19.5t-1 -15.5q-4 -47 11 -69q4 -6 8 -11.5t8 -9.5q4 -6 6 -10l8 12q16 4 25.5 -4t13.5 -20v2q4 -14 -4 -25.5t-20 -15.5q-6 -2 -16.5 -2t-24.5 4l-15 8q-4 0 -9 2t-21 16q-8 6 -13 11 q-2 2 0 2q-16 -27 -32.5 -34t-40.5 -7q-35 0 -62 26h2q-31 29 -45 85.5t-10 131.5zM61 442q-4 -84 10.5 -121.5t24.5 -46.5q10 -10 15 -10q14 0 31.5 30t19.5 89v25l4 319v32.5t-3 42t-9.5 41t-16.5 29.5q-10 16 -24 17q-18 0 -29.5 -42t-16 -98.5t-5.5 -118t-1 -102.5v-86z " />
<glyph unicode="&#xe1;" horiz-adv-x="301" d="M-14 948q-14 29 14 47q8 6 34 23.5t56.5 44t59.5 59.5t45 68q6 10 18.5 15t24.5 1q14 -4 18.5 -17.5t-0.5 -25.5q-18 -45 -54 -85t-71.5 -70.5t-63.5 -48t-30 -19.5q-12 -6 -16 -7t-8 -1q-8 0 -15.5 3t-11.5 13zM-4 444v84q0 86 3 164t14.5 135.5t34 92t63.5 34.5 q45 0 73 -32v2q18 -20 28.5 -50t14.5 -60t3 -54.5t-1 -34.5v-338q0 -10 -1 -19.5t-1 -15.5q-4 -47 11 -69q4 -6 8 -11.5t8 -9.5q4 -6 6 -10l8 12q16 4 25.5 -4t13.5 -20v2q4 -14 -4 -25.5t-20 -15.5q-6 -2 -16.5 -2t-24.5 4l-15 8q-4 0 -9 2t-21 16q-8 6 -13 11q-2 2 0 2 q-16 -27 -32.5 -34t-40.5 -7q-35 0 -62 26h2q-31 29 -45 85.5t-10 131.5zM61 442q-4 -84 10.5 -121.5t24.5 -46.5q10 -10 15 -10q14 0 31.5 30t19.5 89v25l4 319v32.5t-3 42t-9.5 41t-16.5 29.5q-10 16 -24 17q-18 0 -29.5 -42t-16 -98.5t-5.5 -118t-1 -102.5v-86z" />
<glyph unicode="&#xe2;" horiz-adv-x="301" d="M-94 938q-10 29 16 49l18 10q19 9 43.5 22.5t51.5 31.5t45 37q16 16 41 6q14 -10 38.5 -26.5t51.5 -33t51.5 -30t38.5 -17.5q12 -4 17.5 -17t-0.5 -28l2 2q-4 -10 -13.5 -17t-19.5 -7h-12q-12 6 -34 18.5t-46.5 26.5t-48 29.5t-39.5 25.5q-35 -29 -78 -53.5t-64 -36.5 q-4 -2 -5 -3t-5 -3t-6 -4q-25 -6 -43 18zM-4 444v84q0 86 3 164t14.5 135.5t34 92t63.5 34.5q45 0 73 -32v2q18 -20 28.5 -50t14.5 -60t3 -54.5t-1 -34.5v-338q0 -10 -1 -19.5t-1 -15.5q-4 -47 11 -69q4 -6 8 -11.5t8 -9.5q4 -6 6 -10l8 12q16 4 25.5 -4t13.5 -20v2 q4 -14 -4 -25.5t-20 -15.5q-6 -2 -16.5 -2t-24.5 4l-15 8q-4 0 -9 2t-21 16q-8 6 -13 11q-2 2 0 2q-16 -27 -32.5 -34t-40.5 -7q-35 0 -62 26h2q-31 29 -45 85.5t-10 131.5zM61 442q-4 -84 10.5 -121.5t24.5 -46.5q10 -10 15 -10q14 0 31.5 30t19.5 89v25l4 319v32.5t-3 42 t-9.5 41t-16.5 29.5q-10 16 -24 17q-18 0 -29.5 -42t-16 -98.5t-5.5 -118t-1 -102.5v-86z" />
<glyph unicode="&#xe4;" horiz-adv-x="301" d="M-27 987q0 23 15.5 37t38.5 14t38 -14t15 -37t-15 -38t-38 -15t-38.5 15.5t-15.5 37.5zM-4 444v84q0 86 3 164t14.5 135.5t34 92t63.5 34.5q45 0 73 -32v2q18 -20 28.5 -50t14.5 -60t3 -54.5t-1 -34.5v-338q0 -10 -1 -19.5t-1 -15.5q-4 -47 11 -69q4 -6 8 -11.5t8 -9.5 q4 -6 6 -10l8 12q16 4 25.5 -4t13.5 -20v2q4 -14 -4 -25.5t-20 -15.5q-6 -2 -16.5 -2t-24.5 4l-15 8q-4 0 -9 2t-21 16q-8 6 -13 11q-2 2 0 2q-16 -27 -32.5 -34t-40.5 -7q-35 0 -62 26h2q-31 29 -45 85.5t-10 131.5zM61 442q-4 -84 10.5 -121.5t24.5 -46.5q10 -10 15 -10 q14 0 31.5 30t19.5 89v25l4 319v32.5t-3 42t-9.5 41t-16.5 29.5q-10 16 -24 17q-18 0 -29.5 -42t-16 -98.5t-5.5 -118t-1 -102.5v-86zM154 987q0 23 16 37t39 14q20 0 35.5 -14t15.5 -37t-15.5 -38t-35.5 -15q-23 0 -39 15.5t-16 37.5z" />
<glyph unicode="&#xe6;" horiz-adv-x="571" d="M-4 444v84q0 86 3 164t14.5 135.5t34 92t63.5 34.5q45 0 73 -32v2q18 -20 28.5 -50t14.5 -60t3 -54.5t-1 -34.5v-338q0 -10 -1 -19.5t-1 -15.5q-4 -47 11 -69q4 -6 8 -11.5t8 -9.5q4 -6 6 -10l8 12q16 4 25.5 -4t13.5 -20v2q4 -14 -4 -25.5t-20 -15.5q-6 -2 -16.5 -2 t-24.5 4l-15 8q-4 0 -9 2t-21 16q-8 6 -13 11q-2 2 0 2q-16 -27 -32.5 -34t-40.5 -7q-35 0 -62 26h2q-31 29 -45 85.5t-10 131.5zM61 442q-4 -84 10.5 -121.5t24.5 -46.5q10 -10 15 -10q14 0 31.5 30t19.5 89v25l4 319v32.5t-3 42t-9.5 41t-16.5 29.5q-10 16 -24 17 q-18 0 -29.5 -42t-16 -98.5t-5.5 -118t-1 -102.5v-86zM174 473q2 16 2 37.5v44.5q0 66 2 136.5t12 129t31.5 96t62.5 37.5q41 4 72 -30l-2 2q18 -18 28.5 -48t15.5 -58.5t5 -53.5v-37q-2 -29 -11 -61.5t-27.5 -63.5t-49.5 -54.5t-74 -31.5v-26.5t-2 -22.5q2 -74 16.5 -133.5 t30.5 -69.5h-2q6 -2 9 0q8 4 15 24.5t9 63.5q0 10 11.5 20.5t21.5 12.5q35 -4 35 -35q-2 -53 -18.5 -91t-45.5 -52v2q-16 -10 -30 -10q-16 0 -37 14q-39 27 -60.5 94.5t-19.5 163.5zM241 584q33 8 52.5 32.5t30 50t12.5 46t2 22.5v29.5t-3 41t-9.5 42t-18.5 31.5 q-10 10 -21 10q-16 0 -24 -33t-13.5 -80t-6.5 -99t-1 -93z" />
<glyph unicode="&#xe8;" horiz-adv-x="270" d="M-41 1164h2q-6 12 -1 25.5t17 17.5l-2 -2q12 8 26.5 2t18.5 -19q14 -33 41 -63.5t56.5 -56t55.5 -44t38 -26.5q4 -4 6 -4l2 -2h-2q29 -14 10 -49q-8 -10 -26 -11q-10 0 -19 4q-8 4 -37.5 23.5t-65.5 50.5t-70 71t-50 83zM-6 473q2 16 2 37.5v44.5q0 66 2 136.5t12 129 t31.5 96t62.5 37.5q41 4 72 -30l-2 2q18 -18 28.5 -48t15.5 -58.5t5 -53.5v-37q-2 -29 -11 -61.5t-27.5 -63.5t-49.5 -54.5t-74 -31.5v-26.5t-2 -22.5q2 -74 16.5 -133.5t30.5 -69.5h-2q6 -2 9 0q8 4 15 24.5t9 63.5q0 10 11.5 20.5t21.5 12.5q35 -4 35 -35 q-2 -53 -18.5 -91t-45.5 -52v2q-16 -10 -30 -10q-16 0 -37 14q-39 27 -60.5 94.5t-19.5 163.5zM61 584q33 8 52.5 32.5t30 50t12.5 46t2 22.5v29.5t-3 41t-9.5 42t-18.5 31.5q-10 10 -21 10q-16 0 -24 -33t-13.5 -80t-6.5 -99t-1 -93z" />
<glyph unicode="&#xe9;" horiz-adv-x="270" d="M-10 948q-14 29 14 47q8 6 34 23.5t56.5 44t59.5 59.5t45 68q6 10 18.5 15t24.5 1q14 -4 18.5 -17.5t-0.5 -25.5q-18 -45 -54 -85t-71.5 -70.5t-63.5 -48t-30 -19.5q-12 -6 -16 -7t-8 -1q-8 0 -15.5 3t-11.5 13zM-6 473q2 16 2 37.5v44.5q0 66 2 136.5t12 129t31.5 96 t62.5 37.5q41 4 72 -30l-2 2q18 -18 28.5 -48t15.5 -58.5t5 -53.5v-37q-2 -29 -11 -61.5t-27.5 -63.5t-49.5 -54.5t-74 -31.5v-26.5t-2 -22.5q2 -74 16.5 -133.5t30.5 -69.5h-2q6 -2 9 0q8 4 15 24.5t9 63.5q0 10 11.5 20.5t21.5 12.5q35 -4 35 -35q-2 -53 -18.5 -91 t-45.5 -52v2q-16 -10 -30 -10q-16 0 -37 14q-39 27 -60.5 94.5t-19.5 163.5zM61 584q33 8 52.5 32.5t30 50t12.5 46t2 22.5v29.5t-3 41t-9.5 42t-18.5 31.5q-10 10 -21 10q-16 0 -24 -33t-13.5 -80t-6.5 -99t-1 -93z" />
<glyph unicode="&#xea;" horiz-adv-x="270" d="M-92 952q-10 29 16 49l18 10q19 9 43.5 22.5t51.5 31.5t45 37q16 16 41 6q14 -10 38.5 -26.5t51.5 -33t51.5 -30t38.5 -17.5q12 -4 17.5 -17t-0.5 -28l2 2q-4 -10 -13.5 -17t-19.5 -7h-12q-12 6 -34 18.5t-46.5 26.5t-48 29.5t-39.5 25.5q-35 -29 -78 -53.5t-64 -36.5 q-4 -2 -5 -3t-5 -3t-6 -4q-25 -6 -43 18zM-6 473q2 16 2 37.5v44.5q0 66 2 136.5t12 129t31.5 96t62.5 37.5q41 4 72 -30l-2 2q18 -18 28.5 -48t15.5 -58.5t5 -53.5v-37q-2 -29 -11 -61.5t-27.5 -63.5t-49.5 -54.5t-74 -31.5v-26.5t-2 -22.5q2 -74 16.5 -133.5t30.5 -69.5 h-2q6 -2 9 0q8 4 15 24.5t9 63.5q0 10 11.5 20.5t21.5 12.5q35 -4 35 -35q-2 -53 -18.5 -91t-45.5 -52v2q-16 -10 -30 -10q-16 0 -37 14q-39 27 -60.5 94.5t-19.5 163.5zM61 584q33 8 52.5 32.5t30 50t12.5 46t2 22.5v29.5t-3 41t-9.5 42t-18.5 31.5q-10 10 -21 10 q-16 0 -24 -33t-13.5 -80t-6.5 -99t-1 -93z" />
<glyph unicode="&#xeb;" horiz-adv-x="270" d="M-39 991q0 23 15.5 37t38.5 14t38 -14t15 -37t-15 -38t-38 -15t-38.5 15.5t-15.5 37.5zM-6 473q2 16 2 37.5v44.5q0 66 2 136.5t12 129t31.5 96t62.5 37.5q41 4 72 -30l-2 2q18 -18 28.5 -48t15.5 -58.5t5 -53.5v-37q-2 -29 -11 -61.5t-27.5 -63.5t-49.5 -54.5t-74 -31.5 v-26.5t-2 -22.5q2 -74 16.5 -133.5t30.5 -69.5h-2q6 -2 9 0q8 4 15 24.5t9 63.5q0 10 11.5 20.5t21.5 12.5q35 -4 35 -35q-2 -53 -18.5 -91t-45.5 -52v2q-16 -10 -30 -10q-16 0 -37 14q-39 27 -60.5 94.5t-19.5 163.5zM61 584q33 8 52.5 32.5t30 50t12.5 46t2 22.5v29.5 t-3 41t-9.5 42t-18.5 31.5q-10 10 -21 10q-16 0 -24 -33t-13.5 -80t-6.5 -99t-1 -93zM142 991q0 23 16 37t39 14q20 0 35.5 -14t15.5 -37t-15.5 -38t-35.5 -15q-23 0 -39 15.5t-16 37.5z" />
<glyph unicode="&#xec;" horiz-adv-x="126" d="M-100 1053h2q-6 12 -1 25.5t17 17.5l-2 -2q12 8 26.5 2t18.5 -19q14 -33 41 -63.5t56.5 -56t55.5 -44t38 -26.5q4 -4 6 -4l2 -2h-2q29 -14 10 -50q-8 -10 -27 -10q-10 0 -18 4t-38 23.5t-65.5 50.5t-69.5 71t-50 83zM18 233v545q0 10 9.5 20.5t25.5 10.5q10 0 19.5 -10.5 t9.5 -20.5v-545q0 -16 -9.5 -24t-19.5 -8q-35 0 -35 32z" />
<glyph unicode="&#xed;" horiz-adv-x="126" d="M-68 879q-14 29 15 47q8 6 33.5 23.5t56.5 44t59.5 59t44.5 67.5q6 10 18.5 15.5t24.5 1.5q14 -4 18.5 -17.5t0.5 -25.5q-18 -45 -54 -85t-72 -71t-63.5 -48.5t-29.5 -19.5q-12 -6 -16.5 -7t-8.5 -1q-8 0 -15 3t-12 14zM18 233v545q0 10 9.5 20.5t25.5 10.5 q10 0 20.5 -10.5t10.5 -20.5v-545q0 -16 -10.5 -24t-20.5 -8q-35 0 -35 32z" />
<glyph unicode="&#xee;" horiz-adv-x="126" d="M-147 897q-10 29 16 49l19 10q18 9 42.5 22t51 31.5t45.5 37.5q16 16 41 6q14 -10 38.5 -26.5t51 -33t51.5 -30t39 -17.5q12 -4 17 -17.5t-1 -27.5l2 2q-4 -10 -13 -17t-20 -7h-12q-12 6 -33.5 18t-46 26.5t-48 30t-40.5 25.5q-35 -29 -78 -53.5t-63 -36.5q-4 -2 -5 -3 t-5 -3t-6 -4q-25 -6 -43 18zM18 233v545q0 10 9.5 20.5t25.5 10.5q10 0 19.5 -10.5t9.5 -20.5v-545q0 -16 -9.5 -24t-19.5 -8q-35 0 -35 32z" />
<glyph unicode="&#xef;" horiz-adv-x="126" d="M-106 971q0 23 15 37t38 14t38 -14.5t15 -36.5q0 -23 -15 -38t-38 -15t-38 15t-15 38zM18 233v545q0 10 9.5 20.5t25.5 10.5q10 0 19.5 -10.5t9.5 -20.5v-545q0 -16 -9.5 -24t-19.5 -8q-35 0 -35 32zM74 971q0 23 16 37t39 14q20 0 35.5 -14.5t15.5 -36.5 q0 -23 -15.5 -38t-35.5 -15q-23 0 -39 15t-16 38z" />
<glyph unicode="&#xf2;" d="M-29 1164h2q-6 12 -1 25.5t17 17.5l-2 -2q12 8 26.5 2t18.5 -19q14 -33 41 -63.5t56.5 -56t55.5 -44t38 -26.5q4 -4 6 -4l2 -2h-2q29 -14 10 -49q-8 -10 -26 -11q-10 0 -19 4q-8 4 -37.5 23.5t-65.5 50.5t-70 71t-50 83zM-4 451q2 14 2 34.5v46.5q0 86 2 161t13.5 131.5 t32.5 90t60 33.5q47 0 72 -30v2q18 -18 27.5 -46t14.5 -58t5 -54.5v-36.5l-6 -340q-2 -86 -34.5 -131t-78.5 -45q-33 0 -59 27q-27 29 -41 83t-10 132zM59 449q2 -68 13.5 -113t17.5 -55q4 -2 9 -5.5t7 -3.5q16 0 34 28t18 87l2 338v33.5t-3 43t-9.5 41t-18.5 31.5 q-6 10 -18 11q-18 0 -28.5 -41t-15 -97.5t-5.5 -116t-1 -98.5v-47t-2 -36z" />
<glyph unicode="&#xf3;" d="M-10 948q-14 29 14 47q8 6 34 23.5t56.5 44t59.5 59.5t45 68q6 10 18.5 15t24.5 1q14 -4 18.5 -17.5t-0.5 -25.5q-18 -45 -54 -85t-71.5 -70.5t-63.5 -48t-30 -19.5q-12 -6 -16 -7t-8 -1q-8 0 -15.5 3t-11.5 13zM-4 451q2 14 2 34.5v46.5q0 86 2 161t13.5 131.5t32.5 90 t60 33.5q47 0 72 -30v2q18 -18 27.5 -46t14.5 -58t5 -54.5v-36.5l-6 -340q-2 -86 -34.5 -131t-78.5 -45q-33 0 -59 27q-27 29 -41 83t-10 132zM59 449q2 -68 13.5 -113t17.5 -55q4 -2 9 -5.5t7 -3.5q16 0 34 28t18 87l2 338v33.5t-3 43t-9.5 41t-18.5 31.5q-6 10 -18 11 q-18 0 -28.5 -41t-15 -97.5t-5.5 -116t-1 -98.5v-47t-2 -36z" />
<glyph unicode="&#xf4;" d="M-84 948q-10 29 16 49l18 10q19 9 43.5 22.5t51.5 31.5t45 37q16 16 41 6q14 -10 38.5 -26.5t51.5 -33t51.5 -30t38.5 -17.5q12 -4 17.5 -17t-0.5 -28l2 2q-4 -10 -13.5 -17t-19.5 -7h-12q-12 6 -34 18.5t-46.5 26.5t-48 29.5t-39.5 25.5q-35 -29 -78 -53.5t-64 -36.5 q-4 -2 -5 -3t-5 -3t-6 -4q-25 -6 -43 18zM-4 451q2 14 2 34.5v46.5q0 86 2 161t13.5 131.5t32.5 90t60 33.5q47 0 72 -30v2q18 -18 27.5 -46t14.5 -58t5 -54.5v-36.5l-6 -340q-2 -86 -34.5 -131t-78.5 -45q-33 0 -59 27q-27 29 -41 83t-10 132zM59 449q2 -68 13.5 -113 t17.5 -55q4 -2 9 -5.5t7 -3.5q16 0 34 28t18 87l2 338v33.5t-3 43t-9.5 41t-18.5 31.5q-6 10 -18 11q-18 0 -28.5 -41t-15 -97.5t-5.5 -116t-1 -98.5v-47t-2 -36z" />
<glyph unicode="&#xf6;" d="M-25 987q0 23 15.5 37t38.5 14t38 -14t15 -37t-15 -38t-38 -15t-38.5 15.5t-15.5 37.5zM-4 451q2 14 2 34.5v46.5q0 86 2 161t13.5 131.5t32.5 90t60 33.5q47 0 72 -30v2q18 -18 27.5 -46t14.5 -58t5 -54.5v-36.5l-6 -340q-2 -86 -34.5 -131t-78.5 -45q-33 0 -59 27 q-27 29 -41 83t-10 132zM59 449q2 -68 13.5 -113t17.5 -55q4 -2 9 -5.5t7 -3.5q16 0 34 28t18 87l2 338v33.5t-3 43t-9.5 41t-18.5 31.5q-6 10 -18 11q-18 0 -28.5 -41t-15 -97.5t-5.5 -116t-1 -98.5v-47t-2 -36zM156 987q0 23 16 37t39 14q20 0 35.5 -14t15.5 -37 t-15.5 -38t-35.5 -15q-23 0 -39 15.5t-16 37.5z" />
<glyph unicode="&#xf9;" horiz-adv-x="362" d="M-12 1192h2q-6 12 -1 25.5t17 17.5l-2 -2q12 8 26.5 2t18.5 -19q14 -33 41 -63.5t56.5 -56t55.5 -44t38 -26.5q4 -4 6 -4l2 -2h-2q29 -14 10 -49q-8 -10 -26 -11q-10 0 -19 4q-8 4 -37.5 23.5t-65.5 50.5t-70 71t-50 83zM-2 461q0 35 1 78t3 96v299q0 10 10.5 20.5 t22.5 10.5q14 0 23.5 -10.5t9.5 -20.5q0 -88 -1 -163t-4 -138q-2 -41 -2 -76v-68q0 -86 5.5 -137t21.5 -67v2q4 -4 12 -4q29 0 46.5 16t27.5 37q12 23 19 55q0 2 1 3t1 3q-2 20 -2 47v56v63.5t2 71.5q2 59 3 139t1 160q0 10 9 20.5t23 10.5t23.5 -10.5t9.5 -20.5 q0 -88 -1 -163t-3 -138q-2 -47 -2 -87v-75q0 -78 5 -124t20 -62v2q4 -4 14 -4q14 0 23.5 -9.5t9.5 -21.5q0 -35 -33 -35q-41 0 -61 27v-2q-12 12 -23 34q-18 -23 -48 -41t-65 -18q-39 0 -61 27v-2q-25 25 -33 76t-8 143z" />
<glyph unicode="&#xfa;" horiz-adv-x="362" d="M-2 461q0 35 1 78t3 96v299q0 10 10.5 20.5t22.5 10.5q14 0 23.5 -10.5t9.5 -20.5q0 -88 -1 -163t-4 -138q-2 -41 -2 -76v-68q0 -86 5.5 -137t21.5 -67v2q4 -4 12 -4q29 0 46.5 16t27.5 37q12 23 19 55q0 2 1 3t1 3q-2 20 -2 47v56v63.5t2 71.5q2 59 3 139t1 160 q0 10 9 20.5t23 10.5t23.5 -10.5t9.5 -20.5q0 -88 -1 -163t-3 -138q-2 -47 -2 -87v-75q0 -78 5 -124t20 -62v2q4 -4 14 -4q14 0 23.5 -9.5t9.5 -21.5q0 -35 -33 -35q-41 0 -61 27v-2q-12 12 -23 34q-18 -23 -48 -41t-65 -18q-39 0 -61 27v-2q-25 25 -33 76t-8 143zM2 977 q-14 29 14 47q8 6 34 23.5t56.5 44t59.5 59.5t45 68q6 10 18.5 15t24.5 1q14 -4 18.5 -17.5t-0.5 -25.5q-18 -45 -54 -85t-71.5 -70.5t-63.5 -48t-30 -19.5q-12 -6 -16 -7t-8 -1q-8 0 -15.5 3t-11.5 13z" />
<glyph unicode="&#xfb;" horiz-adv-x="362" d="M-80 954q-10 29 16 49l18 10q19 9 43.5 22.5t51.5 31.5t45 37q16 16 41 6q14 -10 38.5 -26.5t51.5 -33t51.5 -30t38.5 -17.5q12 -4 17.5 -17t-0.5 -28l2 2q-4 -10 -13.5 -17t-19.5 -7h-12q-12 6 -34 18.5t-46.5 26.5t-48 29.5t-39.5 25.5q-35 -29 -78 -53.5t-64 -36.5 q-4 -2 -5 -3t-5 -3t-6 -4q-25 -6 -43 18zM-2 461q0 35 1 78t3 96v299q0 10 10.5 20.5t22.5 10.5q14 0 23.5 -10.5t9.5 -20.5q0 -88 -1 -163t-4 -138q-2 -41 -2 -76v-68q0 -86 5.5 -137t21.5 -67v2q4 -4 12 -4q29 0 46.5 16t27.5 37q12 23 19 55q0 2 1 3t1 3q-2 20 -2 47v56 v63.5t2 71.5q2 59 3 139t1 160q0 10 9 20.5t23 10.5t23.5 -10.5t9.5 -20.5q0 -88 -1 -163t-3 -138q-2 -47 -2 -87v-75q0 -78 5 -124t20 -62v2q4 -4 14 -4q14 0 23.5 -9.5t9.5 -21.5q0 -35 -33 -35q-41 0 -61 27v-2q-12 12 -23 34q-18 -23 -48 -41t-65 -18q-39 0 -61 27v-2 q-25 25 -33 76t-8 143z" />
<glyph unicode="&#xfc;" horiz-adv-x="362" d="M-11 1020q0 23 15.5 37t38.5 14t38 -14t15 -37t-15 -38t-38 -15t-38.5 15.5t-15.5 37.5zM-2 461q0 35 1 78t3 96v299q0 10 10.5 20.5t22.5 10.5q14 0 23.5 -10.5t9.5 -20.5q0 -88 -1 -163t-4 -138q-2 -41 -2 -76v-68q0 -86 5.5 -137t21.5 -67v2q4 -4 12 -4q29 0 46.5 16 t27.5 37q12 23 19 55q0 2 1 3t1 3q-2 20 -2 47v56v63.5t2 71.5q2 59 3 139t1 160q0 10 9 20.5t23 10.5t23.5 -10.5t9.5 -20.5q0 -88 -1 -163t-3 -138q-2 -47 -2 -87v-75q0 -78 5 -124t20 -62v2q4 -4 14 -4q14 0 23.5 -9.5t9.5 -21.5q0 -35 -33 -35q-41 0 -61 27v-2 q-12 12 -23 34q-18 -23 -48 -41t-65 -18q-39 0 -61 27v-2q-25 25 -33 76t-8 143zM170 1020q0 23 16 37t39 14q20 0 35.5 -14t15.5 -37t-15.5 -38t-35.5 -15q-23 0 -39 15.5t-16 37.5z" />
<glyph unicode="&#xfd;" d="M-4 -258q0 59 8 132t27.5 137.5t52.5 111.5t82 57v35q-18 2 -43 18q-98 68 -98 359v268q0 14 11 22.5t21 8.5q33 0 33 -31v-268q0 -84 7 -139.5t18.5 -90t23 -52t21.5 -23.5l-2 2q8 -4 6 -2t4 0v231q0 6 2 10q-2 4 -2 11v395q0 33 33 33q31 0 30 -33v-395q0 -8 -2 -15 q0 -2 1 -3t1 -3q-2 -76 -2 -139.5v-122.5l-2 4q4 -8 0 -22l2 4q0 -39 -1 -72t-1 -61v-81t-2 -57q-2 -16 -2 -33.5t-2 -33.5q-4 -72 -8 -139.5t-14 -114.5q-2 -16 -7.5 -42t-17.5 -49.5t-30.5 -41t-47.5 -17.5q-33 2 -52 30t-30.5 66.5t-14.5 78.5t-3 67zM4 952q-14 29 14 47 q8 6 34 23.5t56.5 44t59.5 59.5t45 68q6 10 18.5 15t24.5 1q14 -4 18.5 -17.5t-0.5 -25.5q-18 -45 -54 -85t-71.5 -70.5t-63.5 -48t-30 -19.5q-12 -6 -16 -7t-8 -1q-8 0 -15.5 3t-11.5 13zM59 -258q2 -90 14.5 -132t24.5 -44q12 0 20.5 31.5t14.5 64.5q10 47 15.5 109.5 t9.5 134.5q2 16 2 33.5t2 33.5v7v34.5t2 46.5q0 8 1 21.5t1 28.5q-25 -12 -45.5 -49t-34.5 -87.5t-20.5 -111t-6.5 -121.5z" />
<glyph unicode="&#xff;" d="M-7 1034q0 23 15.5 37t38.5 14t38 -14t15 -37t-15 -38t-38 -15t-38.5 15.5t-15.5 37.5zM-4 -258q0 59 8 132t27.5 137.5t52.5 111.5t82 57v35q-18 2 -43 18q-98 68 -98 359v268q0 14 11 22.5t21 8.5q33 0 33 -31v-268q0 -84 7 -139.5t18.5 -90t23 -52t21.5 -23.5l-2 2 q8 -4 6 -2t4 0v231q0 6 2 10q-2 4 -2 11v395q0 33 33 33q31 0 30 -33v-395q0 -8 -2 -15q0 -2 1 -3t1 -3q-2 -76 -2 -139.5v-122.5l-2 4q4 -8 0 -22l2 4q0 -39 -1 -72t-1 -61v-81t-2 -57q-2 -16 -2 -33.5t-2 -33.5q-4 -72 -8 -139.5t-14 -114.5q-2 -16 -7.5 -42t-17.5 -49.5 t-30.5 -41t-47.5 -17.5q-33 2 -52 30t-30.5 66.5t-14.5 78.5t-3 67zM59 -258q2 -90 14.5 -132t24.5 -44q12 0 20.5 31.5t14.5 64.5q10 47 15.5 109.5t9.5 134.5q2 16 2 33.5t2 33.5v7v34.5t2 46.5q0 8 1 21.5t1 28.5q-25 -12 -45.5 -49t-34.5 -87.5t-20.5 -111t-6.5 -121.5z M174 1034q0 23 16 37t39 14q20 0 35.5 -14t15.5 -37t-15.5 -38t-35.5 -15q-23 0 -39 15.5t-16 37.5z" />
<glyph unicode="&#x153;" horiz-adv-x="417" d="M-4 451q2 14 2 34.5v46.5q0 86 2 161t13.5 131.5t32.5 90t60 33.5q47 0 72 -30v2q18 -18 27.5 -46t14.5 -58t5 -54.5v-36.5l-6 -340q-2 -86 -34.5 -131t-78.5 -45q-33 0 -59 27q-27 29 -41 83t-10 132zM59 449q2 -68 13.5 -113t17.5 -55q4 -2 9 -5.5t7 -3.5q16 0 34 28 t18 87l2 338v33.5t-3 43t-9.5 41t-18.5 31.5q-6 10 -18 11q-18 0 -28.5 -41t-15 -97.5t-5.5 -116t-1 -98.5v-47t-2 -36zM166 473q2 16 2 37.5v44.5q0 66 2 136.5t12 129t31.5 96t62.5 37.5q41 4 72 -30l-2 2q18 -18 28.5 -48t15.5 -58.5t5 -53.5v-37q-2 -29 -11 -61.5 t-27.5 -63.5t-49.5 -54.5t-74 -31.5v-26.5t-2 -22.5q2 -74 16.5 -133.5t30.5 -69.5h-2q6 -2 9 0q8 4 15 24.5t9 63.5q0 10 11.5 20.5t21.5 12.5q35 -4 35 -35q-2 -53 -18.5 -91t-45.5 -52v2q-16 -10 -30 -10q-16 0 -37 14q-39 27 -60.5 94.5t-19.5 163.5zM233 584 q33 8 52.5 32.5t30 50t12.5 46t2 22.5v29.5t-3 41t-9.5 42t-18.5 31.5q-10 10 -21 10q-16 0 -24 -33t-13.5 -80t-6.5 -99t-1 -93z" />
<glyph unicode="&#x178;" horiz-adv-x="325" d="M6 464v54v766q0 10 9.5 21.5t21.5 11.5q14 0 23.5 -11.5t9.5 -21.5v-766q-2 -18 -1 -51t6 -67.5t17 -64.5t33 -42h-2q29 -14 90 24v37q0 78 1 154t2 143.5t1 122.5v96v29q0 49 1 105.5t8 108.5t22.5 97t44.5 74h-2q35 35 82 35q35 0 35 -33t-35 -33q-18 0 -37 -18 q-20 -20 -30.5 -59t-15.5 -86.5t-5 -96.5v-92v-31v-115.5t-1 -151.5t-2 -176t-3 -189q-2 -92 -4.5 -187.5t-3.5 -179.5t-3 -152.5t-4 -109.5q-4 -57 -21.5 -80t-33.5 -31v2q-8 -2 -19 -2q-12 0 -28.5 8.5t-28.5 22.5q-25 31 -43 87t-18 136q0 92 29.5 215t107.5 273 q-33 -16 -66 -17q-29 0 -51 15q-35 20 -52 60t-25.5 84t-8.5 82zM28 1360q0 23 15.5 37t38.5 14t38 -14t15 -37t-15 -38t-38 -15t-38.5 15.5t-15.5 37.5zM139 -250q0 -72 13.5 -117t29.5 -63q2 -4 4 -6q0 -2 2 -2q4 4 6.5 14t4.5 37q4 72 6 189.5t6 283.5 q-37 -98 -54.5 -186t-17.5 -150zM209 1360q0 23 16 37t39 14q20 0 35.5 -14t15.5 -37t-15.5 -38t-35.5 -15q-23 0 -39 15.5t-16 37.5z" />
<glyph unicode="&#x2c6;" horiz-adv-x="415" d="M-4 995q-10 29 16 49l18 10q19 9 43.5 22.5t51.5 31.5t45 37q16 16 41 6q14 -10 38.5 -26.5t51.5 -33t51.5 -30t38.5 -17.5q12 -4 17.5 -17t-0.5 -28l2 2q-4 -10 -13.5 -17t-19.5 -7h-12q-12 6 -34 18.5t-46.5 26.5t-48 29.5t-39.5 25.5q-35 -29 -78 -53.5t-64 -36.5 q-4 -2 -5 -3t-5 -3t-6 -4q-25 -6 -43 18z" />
<glyph unicode="&#x2000;" horiz-adv-x="767" />
<glyph unicode="&#x2001;" horiz-adv-x="1534" />
<glyph unicode="&#x2002;" horiz-adv-x="767" />
<glyph unicode="&#x2003;" horiz-adv-x="1534" />
<glyph unicode="&#x2004;" horiz-adv-x="511" />
<glyph unicode="&#x2005;" horiz-adv-x="383" />
<glyph unicode="&#x2006;" horiz-adv-x="255" />
<glyph unicode="&#x2007;" horiz-adv-x="255" />
<glyph unicode="&#x2008;" horiz-adv-x="191" />
<glyph unicode="&#x2009;" horiz-adv-x="306" />
<glyph unicode="&#x200a;" horiz-adv-x="85" />
<glyph unicode="&#x202f;" horiz-adv-x="306" />
<glyph unicode="&#x205f;" horiz-adv-x="383" />
<glyph unicode="&#x20ac;" horiz-adv-x="595" d="M-10 608q0 33 33 33h73q-2 18 -3 42t-3 46h-67q-33 0 -33 33q0 10 8 20.5t25 10.5h67v4q0 92 10.5 175t28.5 148q33 100 72 131t67 31q78 0 121 -51q31 -33 46.5 -78t21.5 -90t6 -84v-57q-2 -12 -12.5 -22.5t-24.5 -6.5q-12 0 -20.5 11t-8.5 24v48t-4 72.5t-16 76.5 t-35 63q-16 16 -32.5 23.5t-41.5 7.5q-18 0 -37.5 -31t-35.5 -84q-16 -61 -27.5 -141t-11.5 -166v-4h270q14 0 23.5 -10.5t9.5 -20.5q0 -33 -33 -33h-268q2 -23 3 -44t5 -44h260q33 0 33 -33q0 -10 -9.5 -21.5t-23.5 -11.5h-252q10 -59 26.5 -112t40 -93t53.5 -62.5 t66 -22.5q61 0 93 34q6 12 12 32t6 34q0 16 -3 32.5t-7 26.5q-4 12 3 22.5t19 16.5v2q10 4 22.5 -1t16.5 -15q2 -4 8.5 -27.5t6.5 -58.5q0 -25 -7.5 -52.5t-25.5 -49.5q-43 -59 -144 -60q-55 0 -97 29t-72.5 77t-51 112.5t-30.5 135.5h-86q-16 0 -24.5 11.5t-8.5 21.5z" />
<glyph unicode="&#xe000;" horiz-adv-x="962" d="M0 0v963h963v-963h-963z" />
</font>
</defs>
</svg>
